<?xml version="1.0" encoding="us-ascii" standalone="no"?><svg xmlns="http://www.w3.org/2000/svg" xmlns:xlink="http://www.w3.org/1999/xlink" contentStyleType="text/css" height="524px" preserveAspectRatio="none" style="width:510px;height:524px;background:#FFFFFF;" version="1.1" viewBox="0 0 510 524" width="510px" zoomAndPan="magnify"><defs/><g><ellipse cx="179.5" cy="20" fill="#222222" rx="10" ry="10" style="stroke:#222222;stroke-width:1.0;"/><polygon fill="#F1F1F1" points="68.5,50,290.5,50,302.5,62,290.5,74,68.5,74,56.5,62,68.5,50" style="stroke:#181818;stroke-width:0.5;"/><text fill="#000000" font-family="sans-serif" font-size="11" lengthAdjust="spacing" textLength="222" x="68.5" y="65.8081">values_pu16 == NULL or len_u32 == 0</text><text fill="#000000" font-family="sans-serif" font-size="11" lengthAdjust="spacing" textLength="20" x="36.5" y="59.4058">yes</text><text fill="#000000" font-family="sans-serif" font-size="11" lengthAdjust="spacing" textLength="14" x="302.5" y="59.4058">no</text><rect fill="#F1F1F1" height="33.9688" rx="12.5" ry="12.5" style="stroke:#181818;stroke-width:0.5;" width="71" x="11" y="84"/><text fill="#000000" font-family="sans-serif" font-size="12" lengthAdjust="spacing" textLength="51" x="21" y="105.1387">return 0</text><rect fill="#F1F1F1" height="33.9688" rx="12.5" ry="12.5" style="stroke:#181818;stroke-width:0.5;" width="111" x="257" y="84"/><text fill="#000000" font-family="sans-serif" font-size="12" lengthAdjust="spacing" textLength="91" x="267" y="105.1387">l_sum_u32 = 0</text><rect fill="#F1F1F1" height="33.9688" rx="12.5" ry="12.5" style="stroke:#181818;stroke-width:0.5;" width="189" x="218" y="137.9688"/><text fill="#000000" font-family="sans-serif" font-size="12" lengthAdjust="spacing" textLength="169" x="228" y="159.1074">for l_i_u32 in [0..len_u32-1]</text><rect fill="#F1F1F1" height="33.9688" rx="12.5" ry="12.5" style="stroke:#181818;stroke-width:0.5;" width="241" x="192" y="191.9375"/><text fill="#000000" font-family="sans-serif" font-size="12" lengthAdjust="spacing" textLength="221" x="202" y="213.0762">values_pu16[l_i_u32] *= factor_u16</text><rect fill="#F1F1F1" height="33.9688" rx="12.5" ry="12.5" style="stroke:#181818;stroke-width:0.5;" width="243" x="191" y="245.9063"/><text fill="#000000" font-family="sans-serif" font-size="12" lengthAdjust="spacing" textLength="223" x="201" y="267.0449">l_sum_u32 += values_pu16[l_i_u32]</text><rect fill="#F1F1F1" height="33.9688" rx="12.5" ry="12.5" style="stroke:#181818;stroke-width:0.5;" width="61" x="282" y="299.875"/><text fill="#000000" font-family="sans-serif" font-size="12" lengthAdjust="spacing" textLength="41" x="292" y="321.0137">endfor</text><rect fill="#F1F1F1" height="33.9688" rx="12.5" ry="12.5" style="stroke:#181818;stroke-width:0.5;" width="373" x="126" y="353.8438"/><text fill="#000000" font-family="sans-serif" font-size="12" lengthAdjust="spacing" textLength="353" x="136" y="374.9824">call MyLib_ComputeAdjustedValue_u32(l_sum_u32, NULL)</text><rect fill="#F1F1F1" height="33.9688" rx="12.5" ry="12.5" style="stroke:#181818;stroke-width:0.5;" width="128" x="248.5" y="407.8125"/><text fill="#000000" font-family="sans-serif" font-size="12" lengthAdjust="spacing" textLength="108" x="258.5" y="428.9512">return l_sum_u32</text><polygon fill="#F1F1F1" points="179.5,447.7813,191.5,459.7813,179.5,471.7813,167.5,459.7813,179.5,447.7813" style="stroke:#181818;stroke-width:0.5;"/><ellipse cx="179.5" cy="502.7813" fill="none" rx="11" ry="11" style="stroke:#222222;stroke-width:1.0;"/><ellipse cx="179.5" cy="502.7813" fill="#222222" rx="6" ry="6" style="stroke:#222222;stroke-width:1.0;"/><line style="stroke:#181818;stroke-width:1.0;" x1="312.5" x2="312.5" y1="117.9688" y2="137.9688"/><polygon fill="#181818" points="308.5,127.9688,312.5,137.9688,316.5,127.9688,312.5,131.9688" style="stroke:#181818;stroke-width:1.0;"/><line style="stroke:#181818;stroke-width:1.0;" x1="312.5" x2="312.5" y1="171.9375" y2="191.9375"/><polygon fill="#181818" points="308.5,181.9375,312.5,191.9375,316.5,181.9375,312.5,185.9375" style="stroke:#181818;stroke-width:1.0;"/><line style="stroke:#181818;stroke-width:1.0;" x1="312.5" x2="312.5" y1="225.9063" y2="245.9063"/><polygon fill="#181818" points="308.5,235.9063,312.5,245.9063,316.5,235.9063,312.5,239.9063" style="stroke:#181818;stroke-width:1.0;"/><line style="stroke:#181818;stroke-width:1.0;" x1="312.5" x2="312.5" y1="279.875" y2="299.875"/><polygon fill="#181818" points="308.5,289.875,312.5,299.875,316.5,289.875,312.5,293.875" style="stroke:#181818;stroke-width:1.0;"/><line style="stroke:#181818;stroke-width:1.0;" x1="312.5" x2="312.5" y1="333.8438" y2="353.8438"/><polygon fill="#181818" points="308.5,343.8438,312.5,353.8438,316.5,343.8438,312.5,347.8438" style="stroke:#181818;stroke-width:1.0;"/><line style="stroke:#181818;stroke-width:1.0;" x1="312.5" x2="312.5" y1="387.8125" y2="407.8125"/><polygon fill="#181818" points="308.5,397.8125,312.5,407.8125,316.5,397.8125,312.5,401.8125" style="stroke:#181818;stroke-width:1.0;"/><line style="stroke:#181818;stroke-width:1.0;" x1="56.5" x2="46.5" y1="62" y2="62"/><line style="stroke:#181818;stroke-width:1.0;" x1="46.5" x2="46.5" y1="62" y2="84"/><polygon fill="#181818" points="42.5,74,46.5,84,50.5,74,46.5,78" style="stroke:#181818;stroke-width:1.0;"/><line style="stroke:#181818;stroke-width:1.0;" x1="302.5" x2="312.5" y1="62" y2="62"/><line style="stroke:#181818;stroke-width:1.0;" x1="312.5" x2="312.5" y1="62" y2="84"/><polygon fill="#181818" points="308.5,74,312.5,84,316.5,74,312.5,78" style="stroke:#181818;stroke-width:1.0;"/><line style="stroke:#181818;stroke-width:1.0;" x1="46.5" x2="46.5" y1="117.9688" y2="459.7813"/><line style="stroke:#181818;stroke-width:1.0;" x1="46.5" x2="167.5" y1="459.7813" y2="459.7813"/><polygon fill="#181818" points="157.5,455.7813,167.5,459.7813,157.5,463.7813,161.5,459.7813" style="stroke:#181818;stroke-width:1.0;"/><line style="stroke:#181818;stroke-width:1.0;" x1="312.5" x2="312.5" y1="441.7813" y2="459.7813"/><line style="stroke:#181818;stroke-width:1.0;" x1="312.5" x2="191.5" y1="459.7813" y2="459.7813"/><polygon fill="#181818" points="201.5,455.7813,191.5,459.7813,201.5,463.7813,197.5,459.7813" style="stroke:#181818;stroke-width:1.0;"/><line style="stroke:#181818;stroke-width:1.0;" x1="179.5" x2="179.5" y1="30" y2="50"/><polygon fill="#181818" points="175.5,40,179.5,50,183.5,40,179.5,44" style="stroke:#181818;stroke-width:1.0;"/><line style="stroke:#181818;stroke-width:1.0;" x1="179.5" x2="179.5" y1="471.7813" y2="491.7813"/><polygon fill="#181818" points="175.5,481.7813,179.5,491.7813,183.5,481.7813,179.5,485.7813" style="stroke:#181818;stroke-width:1.0;"/><!--SRC=[RO-x3e8m58PtdkACu8M09WuI1kEARheGqY0SOarfIIyclBrj9SZWTlAT_v9VwLhgW7OGlcjcK971f0V8SxZUYWA418QScFtEeIG2_KGEuOWg2W2E4hMH798iGAOGGYuyPaIP_cjoFqiw5qIePvH3cSJnbBjDAwUmcaL_EMahMENGrOqMabWy2N_nwnp-kNmbyjQs-hEf6OFBMD07EOj-C1fFxSieZUtTkPqdd4CtVdcKBVRDFxkJjxGBb1R31m00]--></g></svg>