<?xml version="1.0" encoding="us-ascii" standalone="no"?><svg xmlns="http://www.w3.org/2000/svg" xmlns:xlink="http://www.w3.org/1999/xlink" contentStyleType="text/css" height="627px" preserveAspectRatio="none" style="width:718px;height:627px;background:#FFFFFF;" version="1.1" viewBox="0 0 718 627" width="718px" zoomAndPan="magnify"><defs/><g><ellipse cx="218.5" cy="20" fill="#222222" rx="10" ry="10" style="stroke:#222222;stroke-width:1.0;"/><rect fill="#F1F1F1" height="33.9688" rx="12.5" ry="12.5" style="stroke:#181818;stroke-width:0.5;" width="171" x="133" y="50"/><text fill="#000000" font-family="sans-serif" font-size="12" lengthAdjust="spacing" textLength="151" x="143" y="71.1387">static l_CycleCnt_u32++</text><polygon fill="#F1F1F1" points="140.5,103.9688,296.5,103.9688,308.5,115.9688,296.5,127.9688,140.5,127.9688,128.5,115.9688,140.5,103.9688" style="stroke:#181818;stroke-width:0.5;"/><text fill="#000000" font-family="sans-serif" font-size="11" lengthAdjust="spacing" textLength="156" x="140.5" y="119.7769">g_systemReady_b == false</text><text fill="#000000" font-family="sans-serif" font-size="11" lengthAdjust="spacing" textLength="20" x="108.5" y="113.3745">yes</text><text fill="#000000" font-family="sans-serif" font-size="11" lengthAdjust="spacing" textLength="14" x="308.5" y="113.3745">no</text><rect fill="#F1F1F1" height="33.9688" rx="12.5" ry="12.5" style="stroke:#181818;stroke-width:0.5;" width="71" x="11" y="137.9688"/><text fill="#000000" font-family="sans-serif" font-size="12" lengthAdjust="spacing" textLength="51" x="21" y="159.1074">return 1</text><rect fill="#F1F1F1" height="33.9688" rx="12.5" ry="12.5" style="stroke:#181818;stroke-width:0.5;" width="267" x="277" y="137.9688"/><text fill="#000000" font-family="sans-serif" font-size="12" lengthAdjust="spacing" textLength="247" x="287" y="159.1074">l_new_u32 = g_counter_u32 + add_u32</text><polygon fill="#F1F1F1" points="233.5,191.9375,587.5,191.9375,599.5,203.9375,587.5,215.9375,233.5,215.9375,221.5,203.9375,233.5,191.9375" style="stroke:#181818;stroke-width:0.5;"/><text fill="#000000" font-family="sans-serif" font-size="11" lengthAdjust="spacing" textLength="354" x="233.5" y="207.7456">(SaturationEn_b == true) &amp;&amp; (l_new_u32 &gt; CounterLimit_u32)</text><text fill="#000000" font-family="sans-serif" font-size="11" lengthAdjust="spacing" textLength="20" x="201.5" y="201.3433">yes</text><text fill="#000000" font-family="sans-serif" font-size="11" lengthAdjust="spacing" textLength="14" x="599.5" y="201.3433">no</text><rect fill="#F1F1F1" height="33.9688" rx="12.5" ry="12.5" style="stroke:#181818;stroke-width:0.5;" width="239" x="92" y="225.9375"/><text fill="#000000" font-family="sans-serif" font-size="12" lengthAdjust="spacing" textLength="219" x="102" y="247.0762">g_counter_u32 = CounterLimit_u32</text><rect fill="#F1F1F1" height="33.9688" rx="12.5" ry="12.5" style="stroke:#181818;stroke-width:0.5;" width="95" x="164" y="279.9063"/><text fill="#000000" font-family="sans-serif" font-size="12" lengthAdjust="spacing" textLength="75" x="174" y="301.0449">l_ret_u8 = 2</text><rect fill="#F1F1F1" height="33.9688" rx="12.5" ry="12.5" style="stroke:#181818;stroke-width:0.5;" width="195" x="512" y="225.9375"/><text fill="#000000" font-family="sans-serif" font-size="12" lengthAdjust="spacing" textLength="175" x="522" y="247.0762">g_counter_u32 = l_new_u32</text><rect fill="#F1F1F1" height="33.9688" rx="12.5" ry="12.5" style="stroke:#181818;stroke-width:0.5;" width="95" x="562" y="279.9063"/><text fill="#000000" font-family="sans-serif" font-size="12" lengthAdjust="spacing" textLength="75" x="572" y="301.0449">l_ret_u8 = 0</text><polygon fill="#F1F1F1" points="410.5,319.875,422.5,331.875,410.5,343.875,398.5,331.875,410.5,319.875" style="stroke:#181818;stroke-width:0.5;"/><rect fill="#F1F1F1" height="33.9688" rx="12.5" ry="12.5" style="stroke:#181818;stroke-width:0.5;" width="235" x="293" y="412.2773"/><text fill="#000000" font-family="sans-serif" font-size="12" lengthAdjust="spacing" textLength="215" x="303" y="433.416">SaturationEn_b = !SaturationEn_b</text><polygon fill="#F1F1F1" points="325.5,363.875,495.5,363.875,507.5,375.875,495.5,387.875,325.5,387.875,313.5,375.875,325.5,363.875" style="stroke:#181818;stroke-width:0.5;"/><text fill="#000000" font-family="sans-serif" font-size="11" lengthAdjust="spacing" textLength="20" x="414.5" y="398.0854">yes</text><text fill="#000000" font-family="sans-serif" font-size="11" lengthAdjust="spacing" textLength="170" x="325.5" y="379.6831">(l_CycleCnt_u32 &amp; 0x0F) == 0</text><polygon fill="#F1F1F1" points="410.5,466.2461,422.5,478.2461,410.5,490.2461,398.5,478.2461,410.5,466.2461" style="stroke:#181818;stroke-width:0.5;"/><rect fill="#F1F1F1" height="33.9688" rx="12.5" ry="12.5" style="stroke:#181818;stroke-width:0.5;" width="112" x="354.5" y="510.2461"/><text fill="#000000" font-family="sans-serif" font-size="12" lengthAdjust="spacing" textLength="92" x="364.5" y="531.3848">return l_ret_u8</text><polygon fill="#F1F1F1" points="218.5,550.2148,230.5,562.2148,218.5,574.2148,206.5,562.2148,218.5,550.2148" style="stroke:#181818;stroke-width:0.5;"/><ellipse cx="218.5" cy="605.2148" fill="none" rx="11" ry="11" style="stroke:#222222;stroke-width:1.0;"/><ellipse cx="218.5" cy="605.2148" fill="#222222" rx="6" ry="6" style="stroke:#222222;stroke-width:1.0;"/><line style="stroke:#181818;stroke-width:1.0;" x1="218.5" x2="218.5" y1="30" y2="50"/><polygon fill="#181818" points="214.5,40,218.5,50,222.5,40,218.5,44" style="stroke:#181818;stroke-width:1.0;"/><line style="stroke:#181818;stroke-width:1.0;" x1="211.5" x2="211.5" y1="259.9063" y2="279.9063"/><polygon fill="#181818" points="207.5,269.9063,211.5,279.9063,215.5,269.9063,211.5,273.9063" style="stroke:#181818;stroke-width:1.0;"/><line style="stroke:#181818;stroke-width:1.0;" x1="609.5" x2="609.5" y1="259.9063" y2="279.9063"/><polygon fill="#181818" points="605.5,269.9063,609.5,279.9063,613.5,269.9063,609.5,273.9063" style="stroke:#181818;stroke-width:1.0;"/><line style="stroke:#181818;stroke-width:1.0;" x1="221.5" x2="211.5" y1="203.9375" y2="203.9375"/><line style="stroke:#181818;stroke-width:1.0;" x1="211.5" x2="211.5" y1="203.9375" y2="225.9375"/><polygon fill="#181818" points="207.5,215.9375,211.5,225.9375,215.5,215.9375,211.5,219.9375" style="stroke:#181818;stroke-width:1.0;"/><line style="stroke:#181818;stroke-width:1.0;" x1="599.5" x2="609.5" y1="203.9375" y2="203.9375"/><line style="stroke:#181818;stroke-width:1.0;" x1="609.5" x2="609.5" y1="203.9375" y2="225.9375"/><polygon fill="#181818" points="605.5,215.9375,609.5,225.9375,613.5,215.9375,609.5,219.9375" style="stroke:#181818;stroke-width:1.0;"/><line style="stroke:#181818;stroke-width:1.0;" x1="211.5" x2="211.5" y1="313.875" y2="331.875"/><line style="stroke:#181818;stroke-width:1.0;" x1="211.5" x2="398.5" y1="331.875" y2="331.875"/><polygon fill="#181818" points="388.5,327.875,398.5,331.875,388.5,335.875,392.5,331.875" style="stroke:#181818;stroke-width:1.0;"/><line style="stroke:#181818;stroke-width:1.0;" x1="609.5" x2="609.5" y1="313.875" y2="331.875"/><line style="stroke:#181818;stroke-width:1.0;" x1="609.5" x2="422.5" y1="331.875" y2="331.875"/><polygon fill="#181818" points="432.5,327.875,422.5,331.875,432.5,335.875,428.5,331.875" style="stroke:#181818;stroke-width:1.0;"/><line style="stroke:#181818;stroke-width:1.0;" x1="410.5" x2="410.5" y1="171.9375" y2="191.9375"/><polygon fill="#181818" points="406.5,181.9375,410.5,191.9375,414.5,181.9375,410.5,185.9375" style="stroke:#181818;stroke-width:1.0;"/><line style="stroke:#181818;stroke-width:1.0;" x1="410.5" x2="410.5" y1="387.875" y2="412.2773"/><polygon fill="#181818" points="406.5,402.2773,410.5,412.2773,414.5,402.2773,410.5,406.2773" style="stroke:#181818;stroke-width:1.0;"/><line style="stroke:#181818;stroke-width:1.0;" x1="507.5" x2="538" y1="375.875" y2="375.875"/><polygon fill="#181818" points="534,419.2617,538,429.2617,542,419.2617,538,423.2617" style="stroke:#181818;stroke-width:1.0;"/><line style="stroke:#181818;stroke-width:1.0;" x1="538" x2="538" y1="375.875" y2="478.2461"/><line style="stroke:#181818;stroke-width:1.0;" x1="538" x2="422.5" y1="478.2461" y2="478.2461"/><polygon fill="#181818" points="432.5,474.2461,422.5,478.2461,432.5,482.2461,428.5,478.2461" style="stroke:#181818;stroke-width:1.0;"/><line style="stroke:#181818;stroke-width:1.0;" x1="410.5" x2="410.5" y1="446.2461" y2="466.2461"/><polygon fill="#181818" points="406.5,456.2461,410.5,466.2461,414.5,456.2461,410.5,460.2461" style="stroke:#181818;stroke-width:1.0;"/><line style="stroke:#181818;stroke-width:1.0;" x1="410.5" x2="410.5" y1="343.875" y2="363.875"/><polygon fill="#181818" points="406.5,353.875,410.5,363.875,414.5,353.875,410.5,357.875" style="stroke:#181818;stroke-width:1.0;"/><line style="stroke:#181818;stroke-width:1.0;" x1="410.5" x2="410.5" y1="490.2461" y2="510.2461"/><polygon fill="#181818" points="406.5,500.2461,410.5,510.2461,414.5,500.2461,410.5,504.2461" style="stroke:#181818;stroke-width:1.0;"/><line style="stroke:#181818;stroke-width:1.0;" x1="128.5" x2="46.5" y1="115.9688" y2="115.9688"/><line style="stroke:#181818;stroke-width:1.0;" x1="46.5" x2="46.5" y1="115.9688" y2="137.9688"/><polygon fill="#181818" points="42.5,127.9688,46.5,137.9688,50.5,127.9688,46.5,131.9688" style="stroke:#181818;stroke-width:1.0;"/><line style="stroke:#181818;stroke-width:1.0;" x1="308.5" x2="410.5" y1="115.9688" y2="115.9688"/><line style="stroke:#181818;stroke-width:1.0;" x1="410.5" x2="410.5" y1="115.9688" y2="137.9688"/><polygon fill="#181818" points="406.5,127.9688,410.5,137.9688,414.5,127.9688,410.5,131.9688" style="stroke:#181818;stroke-width:1.0;"/><line style="stroke:#181818;stroke-width:1.0;" x1="46.5" x2="46.5" y1="171.9375" y2="562.2148"/><line style="stroke:#181818;stroke-width:1.0;" x1="46.5" x2="206.5" y1="562.2148" y2="562.2148"/><polygon fill="#181818" points="196.5,558.2148,206.5,562.2148,196.5,566.2148,200.5,562.2148" style="stroke:#181818;stroke-width:1.0;"/><line style="stroke:#181818;stroke-width:1.0;" x1="410.5" x2="410.5" y1="544.2148" y2="562.2148"/><line style="stroke:#181818;stroke-width:1.0;" x1="410.5" x2="230.5" y1="562.2148" y2="562.2148"/><polygon fill="#181818" points="240.5,558.2148,230.5,562.2148,240.5,566.2148,236.5,562.2148" style="stroke:#181818;stroke-width:1.0;"/><line style="stroke:#181818;stroke-width:1.0;" x1="218.5" x2="218.5" y1="83.9688" y2="103.9688"/><polygon fill="#181818" points="214.5,93.9688,218.5,103.9688,222.5,93.9688,218.5,97.9688" style="stroke:#181818;stroke-width:1.0;"/><line style="stroke:#181818;stroke-width:1.0;" x1="218.5" x2="218.5" y1="574.2148" y2="594.2148"/><polygon fill="#181818" points="214.5,584.2148,218.5,594.2148,222.5,584.2148,218.5,588.2148" style="stroke:#181818;stroke-width:1.0;"/><!--SRC=[RP3FJeGm4CRlFCLu8ILSK2zc2Lx8xicJFa1JOLYRT0VJJgEylKC9kYpUsldpVR_v0XlFsI6mOTk1q-tKEMo9TNnyACiwimEeimvJOBoyekad_GvD0uDn0GlW3oHG4uOY0pXuvEW9xkiCfGkAnbHscl1hreC6pheR8p7wz2_1zFtygcLkTb9lHYG4PQGZBKxienZbEQW_dMTe5vKNUx49jRXX4TkjLRDRgPSnfmLRnoUPIALhz7zKVY7swrLQfzuEwpNRE267whiw5VDLrPxtzdIusrQkrTUeLtT9F7K2Zvy_]--></g></svg>