<?xml version="1.0" encoding="us-ascii" standalone="no"?><svg xmlns="http://www.w3.org/2000/svg" xmlns:xlink="http://www.w3.org/1999/xlink" contentStyleType="text/css" height="470px" preserveAspectRatio="none" style="width:382px;height:470px;background:#FFFFFF;" version="1.1" viewBox="0 0 382 470" width="382px" zoomAndPan="magnify"><defs/><g><ellipse cx="191" cy="20" fill="#222222" rx="10" ry="10" style="stroke:#222222;stroke-width:1.0;"/><polygon fill="#F1F1F1" points="127,50,255,50,267,62,255,74,127,74,115,62,127,50" style="stroke:#181818;stroke-width:0.5;"/><text fill="#000000" font-family="sans-serif" font-size="11" lengthAdjust="spacing" textLength="128" x="127" y="65.8081">delta_pc_u16 == NULL</text><text fill="#000000" font-family="sans-serif" font-size="11" lengthAdjust="spacing" textLength="20" x="95" y="59.4058">yes</text><text fill="#000000" font-family="sans-serif" font-size="11" lengthAdjust="spacing" textLength="14" x="267" y="59.4058">no</text><rect fill="#F1F1F1" height="33.9688" rx="12.5" ry="12.5" style="stroke:#181818;stroke-width:0.5;" width="93" x="58.5" y="84"/><text fill="#000000" font-family="sans-serif" font-size="12" lengthAdjust="spacing" textLength="73" x="68.5" y="105.1387">l_d_u16 = 0</text><rect fill="#F1F1F1" height="33.9688" rx="12.5" ry="12.5" style="stroke:#181818;stroke-width:0.5;" width="174" x="190" y="84"/><text fill="#000000" font-family="sans-serif" font-size="12" lengthAdjust="spacing" textLength="154" x="200" y="105.1387">l_d_u16 = *delta_pc_u16</text><polygon fill="#F1F1F1" points="191,123.9688,203,135.9688,191,147.9688,179,135.9688,191,123.9688" style="stroke:#181818;stroke-width:0.5;"/><rect fill="#F1F1F1" height="33.9688" rx="12.5" ry="12.5" style="stroke:#181818;stroke-width:0.5;" width="352" x="15" y="167.9688"/><text fill="#000000" font-family="sans-serif" font-size="12" lengthAdjust="spacing" textLength="332" x="25" y="189.1074">l_base_u32 = InternalHelper_u32(start_u32, l_d_u16)</text><rect fill="#F1F1F1" height="33.9688" rx="12.5" ry="12.5" style="stroke:#181818;stroke-width:0.5;" width="237" x="72.5" y="221.9375"/><text fill="#000000" font-family="sans-serif" font-size="12" lengthAdjust="spacing" textLength="217" x="82.5" y="243.0762">l_r.id_u16 = (l_base_u32 &amp; 0xFFFF)</text><rect fill="#F1F1F1" height="33.9688" rx="12.5" ry="12.5" style="stroke:#181818;stroke-width:0.5;" width="209" x="86.5" y="275.9063"/><text fill="#000000" font-family="sans-serif" font-size="12" lengthAdjust="spacing" textLength="189" x="96.5" y="297.0449">l_r.value_u32 = l_base_u32 / 2</text><rect fill="#F1F1F1" height="33.9688" rx="12.5" ry="12.5" style="stroke:#181818;stroke-width:0.5;" width="360" x="11" y="329.875"/><text fill="#000000" font-family="sans-serif" font-size="12" lengthAdjust="spacing" textLength="340" x="21" y="351.0137">call MyLib_ProcessRecord(&amp;l_r, MYLIB_MULT_VALUE_U8)</text><rect fill="#F1F1F1" height="33.9688" rx="12.5" ry="12.5" style="stroke:#181818;stroke-width:0.5;" width="254" x="64" y="383.8438"/><text fill="#000000" font-family="sans-serif" font-size="12" lengthAdjust="spacing" textLength="234" x="74" y="404.9824">return (l_base_u32 + g_counter_u32)</text><ellipse cx="191" cy="448.8125" fill="none" rx="11" ry="11" style="stroke:#222222;stroke-width:1.0;"/><ellipse cx="191" cy="448.8125" fill="#222222" rx="6" ry="6" style="stroke:#222222;stroke-width:1.0;"/><line style="stroke:#181818;stroke-width:1.0;" x1="115" x2="105" y1="62" y2="62"/><line style="stroke:#181818;stroke-width:1.0;" x1="105" x2="105" y1="62" y2="84"/><polygon fill="#181818" points="101,74,105,84,109,74,105,78" style="stroke:#181818;stroke-width:1.0;"/><line style="stroke:#181818;stroke-width:1.0;" x1="267" x2="277" y1="62" y2="62"/><line style="stroke:#181818;stroke-width:1.0;" x1="277" x2="277" y1="62" y2="84"/><polygon fill="#181818" points="273,74,277,84,281,74,277,78" style="stroke:#181818;stroke-width:1.0;"/><line style="stroke:#181818;stroke-width:1.0;" x1="105" x2="105" y1="117.9688" y2="135.9688"/><line style="stroke:#181818;stroke-width:1.0;" x1="105" x2="179" y1="135.9688" y2="135.9688"/><polygon fill="#181818" points="169,131.9688,179,135.9688,169,139.9688,173,135.9688" style="stroke:#181818;stroke-width:1.0;"/><line style="stroke:#181818;stroke-width:1.0;" x1="277" x2="277" y1="117.9688" y2="135.9688"/><line style="stroke:#181818;stroke-width:1.0;" x1="277" x2="203" y1="135.9688" y2="135.9688"/><polygon fill="#181818" points="213,131.9688,203,135.9688,213,139.9688,209,135.9688" style="stroke:#181818;stroke-width:1.0;"/><line style="stroke:#181818;stroke-width:1.0;" x1="191" x2="191" y1="30" y2="50"/><polygon fill="#181818" points="187,40,191,50,195,40,191,44" style="stroke:#181818;stroke-width:1.0;"/><line style="stroke:#181818;stroke-width:1.0;" x1="191" x2="191" y1="147.9688" y2="167.9688"/><polygon fill="#181818" points="187,157.9688,191,167.9688,195,157.9688,191,161.9688" style="stroke:#181818;stroke-width:1.0;"/><line style="stroke:#181818;stroke-width:1.0;" x1="191" x2="191" y1="201.9375" y2="221.9375"/><polygon fill="#181818" points="187,211.9375,191,221.9375,195,211.9375,191,215.9375" style="stroke:#181818;stroke-width:1.0;"/><line style="stroke:#181818;stroke-width:1.0;" x1="191" x2="191" y1="255.9063" y2="275.9063"/><polygon fill="#181818" points="187,265.9063,191,275.9063,195,265.9063,191,269.9063" style="stroke:#181818;stroke-width:1.0;"/><line style="stroke:#181818;stroke-width:1.0;" x1="191" x2="191" y1="309.875" y2="329.875"/><polygon fill="#181818" points="187,319.875,191,329.875,195,319.875,191,323.875" style="stroke:#181818;stroke-width:1.0;"/><line style="stroke:#181818;stroke-width:1.0;" x1="191" x2="191" y1="363.8438" y2="383.8438"/><polygon fill="#181818" points="187,373.8438,191,383.8438,195,373.8438,191,377.8438" style="stroke:#181818;stroke-width:1.0;"/><line style="stroke:#181818;stroke-width:1.0;" x1="191" x2="191" y1="417.8125" y2="437.8125"/><polygon fill="#181818" points="187,427.8125,191,437.8125,195,427.8125,191,431.8125" style="stroke:#181818;stroke-width:1.0;"/><!--SRC=[NOvDQyCm38Rl-HKw5QSD_HgKiP932nijE6MCPR2JS1rb2nWx-6Ei_xusNI2hJfRVHu_alB0-wrfW3Iali9SOLXieIpZLdEVWlqa3kv3BCu0dXSqjXkKs8-K8c3PtoNGiYfHkkZQB-Lauml2mZiXHUx9Qg0EfdcpwP2xTaLu5_AdoRPgoysuGiv5Z0ilVbrW3z2DK6EmZR07h24YX55GNtftnrHf9phsHDBPXapXQGFN9ZtkiQlwE7pjUFsFzcBIMVB3wtzOPVA4q8LsV-aWvR_eh]--></g></svg>