<?xml version="1.0" encoding="UTF-8" standalone="no"?>
<!DOCTYPE svg PUBLIC "-//W3C//DTD SVG 1.1//EN"
 "http://www.w3.org/Graphics/SVG/1.1/DTD/svg11.dtd">
<!-- Generated by graphviz version 2.43.0 (0)
 -->
<!-- Title: MyLib_ComputeAdjustedValue_u32 Pages: 1 -->
<svg width="539pt" height="64pt"
 viewBox="0.00 0.00 539.00 64.00" xmlns="http://www.w3.org/2000/svg" xmlns:xlink="http://www.w3.org/1999/xlink">
<g id="graph0" class="graph" transform="scale(1 1) rotate(0) translate(4 60)">
<title>MyLib_ComputeAdjustedValue_u32</title>
<!-- Node1 -->
<g id="Node000001" class="node">
<title>Node1</title>
<g id="a_Node000001"><a xlink:title="Compute an adjusted value from a base value and an optional delta.">
<polygon fill="#999999" stroke="#666666" points="531,-37 343,-37 343,-18 531,-18 531,-37"/>
<text text-anchor="middle" x="437" y="-25" font-family="Helvetica,sans-Serif" font-size="10.00">MyLib_ComputeAdjustedValue_u32</text>
</a>
</g>
</g>
<!-- Node2 -->
<g id="Node000002" class="node">
<title>Node2</title>
<g id="a_Node000002"><a xlink:href="MyLib_8c.html#a94d6f4e2dbaa27413d7096304c6b82cb" target="_top" xlink:title="Scale an array in&#45;place and return the sum of scaled elements.">
<polygon fill="white" stroke="#666666" points="307,-56 167,-56 167,-37 307,-37 307,-56"/>
<text text-anchor="middle" x="237" y="-44" font-family="Helvetica,sans-Serif" font-size="10.00">MyLib_AnalyzeArray_u32</text>
</a>
</g>
</g>
<!-- Node1&#45;&gt;Node2 -->
<g id="edge1_Node000001_Node000002" class="edge">
<title>Node1&#45;&gt;Node2</title>
<g id="a_edge1_Node000001_Node000002"><a xlink:title=" ">
<path fill="none" stroke="#63b8ff" d="M332.63,-37.42C323.97,-38.25 315.36,-39.08 307.06,-39.87"/>
<polygon fill="#63b8ff" stroke="#63b8ff" points="333.18,-40.88 342.8,-36.44 332.51,-33.91 333.18,-40.88"/>
</a>
</g>
</g>
<!-- Node3 -->
<g id="Node000003" class="node">
<title>Node3</title>
<g id="a_Node000003"><a xlink:href="MyLib_8c.html#acc6858dfaa1f81a7b2e08e66b7e51f0c" target="_top" xlink:title="Process one record with a bounded accumulation and update module globals.">
<polygon fill="white" stroke="#666666" points="298,-19 176,-19 176,0 298,0 298,-19"/>
<text text-anchor="middle" x="237" y="-7" font-family="Helvetica,sans-Serif" font-size="10.00">MyLib_ProcessRecord</text>
</a>
</g>
</g>
<!-- Node1&#45;&gt;Node3 -->
<g id="edge2_Node000001_Node000003" class="edge">
<title>Node1&#45;&gt;Node3</title>
<g id="a_edge2_Node000001_Node000003"><a xlink:title=" ">
<path fill="none" stroke="#63b8ff" d="M332.49,-18.09C320.77,-17.02 309.13,-15.97 298.24,-14.98"/>
<polygon fill="#63b8ff" stroke="#63b8ff" points="332.52,-21.61 342.8,-19.03 333.16,-14.64 332.52,-21.61"/>
</a>
</g>
</g>
<!-- Node4 -->
<g id="Node000004" class="node">
<title>Node4</title>
<g id="a_Node000004"><a xlink:href="MyLib_8c.html#add13a4d8d439c55a7a840a180c935804" target="_top" xlink:title="Run an orchestration sequence and return a combined result.">
<polygon fill="white" stroke="#666666" points="131,-19 0,-19 0,0 131,0 131,-19"/>
<text text-anchor="middle" x="65.5" y="-7" font-family="Helvetica,sans-Serif" font-size="10.00">MyLib_Orchestrate_u32</text>
</a>
</g>
</g>
<!-- Node3&#45;&gt;Node4 -->
<g id="edge3_Node000003_Node000004" class="edge">
<title>Node3&#45;&gt;Node4</title>
<g id="a_edge3_Node000003_Node000004"><a xlink:title=" ">
<path fill="none" stroke="#63b8ff" d="M165.45,-9.5C154.08,-9.5 142.36,-9.5 131.14,-9.5"/>
<polygon fill="#63b8ff" stroke="#63b8ff" points="165.76,-13 175.76,-9.5 165.76,-6 165.76,-13"/>
</a>
</g>
</g>
</g>
</svg>
