<?xml version="1.0" encoding="UTF-8" standalone="no"?>
<!DOCTYPE svg PUBLIC "-//W3C//DTD SVG 1.1//EN"
 "http://www.w3.org/Graphics/SVG/1.1/DTD/svg11.dtd">
<!-- Generated by graphviz version 2.43.0 (0)
 -->
<!-- Title: MyLib_ProcessRecord Pages: 1 -->
<svg width="500pt" height="27pt"
 viewBox="0.00 0.00 500.00 27.00" xmlns="http://www.w3.org/2000/svg" xmlns:xlink="http://www.w3.org/1999/xlink">
<g id="graph0" class="graph" transform="scale(1 1) rotate(0) translate(4 23)">
<title>MyLib_ProcessRecord</title>
<!-- Node1 -->
<g id="Node000001" class="node">
<title>Node1</title>
<g id="a_Node000001"><a xlink:title="Process one record with a bounded accumulation and update module globals.">
<polygon fill="#999999" stroke="#666666" points="122,-19 0,-19 0,0 122,0 122,-19"/>
<text text-anchor="middle" x="61" y="-7" font-family="Helvetica,sans-Serif" font-size="10.00">MyLib_ProcessRecord</text>
</a>
</g>
</g>
<!-- Node2 -->
<g id="Node000002" class="node">
<title>Node2</title>
<g id="a_Node000002"><a xlink:href="MyLib_8c.html#ab76873d371c0f801495750c290ac869d" target="_top" xlink:title="Compute an adjusted value from a base value and an optional delta.">
<polygon fill="white" stroke="#666666" points="346,-19 158,-19 158,0 346,0 346,-19"/>
<text text-anchor="middle" x="252" y="-7" font-family="Helvetica,sans-Serif" font-size="10.00">MyLib_ComputeAdjustedValue_u32</text>
</a>
</g>
</g>
<!-- Node1&#45;&gt;Node2 -->
<g id="edge1_Node000001_Node000002" class="edge">
<title>Node1&#45;&gt;Node2</title>
<g id="a_edge1_Node000001_Node000002"><a xlink:title=" ">
<path fill="none" stroke="#63b8ff" d="M122.06,-9.5C130.39,-9.5 139.12,-9.5 147.96,-9.5"/>
<polygon fill="#63b8ff" stroke="#63b8ff" points="147.97,-13 157.97,-9.5 147.97,-6 147.97,-13"/>
</a>
</g>
</g>
<!-- Node3 -->
<g id="Node000003" class="node">
<title>Node3</title>
<g id="a_Node000003"><a xlink:href="MyLib_8c.html#ab5e4dfbd8dae29eeb60944034baa1ee6" target="_top" xlink:title=" ">
<polygon fill="white" stroke="#666666" points="492,-19 382,-19 382,0 492,0 492,-19"/>
<text text-anchor="middle" x="437" y="-7" font-family="Helvetica,sans-Serif" font-size="10.00">InternalHelper_u32</text>
</a>
</g>
</g>
<!-- Node2&#45;&gt;Node3 -->
<g id="edge2_Node000002_Node000003" class="edge">
<title>Node2&#45;&gt;Node3</title>
<g id="a_edge2_Node000002_Node000003"><a xlink:title=" ">
<path fill="none" stroke="#63b8ff" d="M346.11,-9.5C354.68,-9.5 363.22,-9.5 371.45,-9.5"/>
<polygon fill="#63b8ff" stroke="#63b8ff" points="371.68,-13 381.68,-9.5 371.68,-6 371.68,-13"/>
</a>
</g>
</g>
</g>
</svg>
