<?xml version="1.0" encoding="UTF-8" standalone="no"?>
<!DOCTYPE svg PUBLIC "-//W3C//DTD SVG 1.1//EN"
 "http://www.w3.org/Graphics/SVG/1.1/DTD/svg11.dtd">
<!-- Generated by graphviz version 2.43.0 (0)
 -->
<!-- Title: MyLib_Orchestrate_u32 Pages: 1 -->
<svg width="667pt" height="46pt"
 viewBox="0.00 0.00 667.00 46.00" xmlns="http://www.w3.org/2000/svg" xmlns:xlink="http://www.w3.org/1999/xlink">
<g id="graph0" class="graph" transform="scale(1 1) rotate(0) translate(4 42)">
<title>MyLib_Orchestrate_u32</title>
<!-- Node1 -->
<g id="Node000001" class="node">
<title>Node1</title>
<g id="a_Node000001"><a xlink:title="Run an orchestration sequence and return a combined result.">
<polygon fill="#999999" stroke="#666666" points="131,-38 0,-38 0,-19 131,-19 131,-38"/>
<text text-anchor="middle" x="65.5" y="-26" font-family="Helvetica,sans-Serif" font-size="10.00">MyLib_Orchestrate_u32</text>
</a>
</g>
</g>
<!-- Node2 -->
<g id="Node000002" class="node">
<title>Node2</title>
<g id="a_Node000002"><a xlink:href="MyLib_8c.html#ab5e4dfbd8dae29eeb60944034baa1ee6" target="_top" xlink:title=" ">
<polygon fill="white" stroke="#666666" points="659,-38 549,-38 549,-19 659,-19 659,-38"/>
<text text-anchor="middle" x="604" y="-26" font-family="Helvetica,sans-Serif" font-size="10.00">InternalHelper_u32</text>
</a>
</g>
</g>
<!-- Node1&#45;&gt;Node2 -->
<g id="edge1_Node000001_Node000002" class="edge">
<title>Node1&#45;&gt;Node2</title>
<g id="a_edge1_Node000001_Node000002"><a xlink:title=" ">
<path fill="none" stroke="#63b8ff" d="M131.21,-28.5C234.55,-28.5 435.63,-28.5 538.7,-28.5"/>
<polygon fill="#63b8ff" stroke="#63b8ff" points="538.96,-32 548.96,-28.5 538.96,-25 538.96,-32"/>
</a>
</g>
</g>
<!-- Node3 -->
<g id="Node000003" class="node">
<title>Node3</title>
<g id="a_Node000003"><a xlink:href="MyLib_8c.html#acc6858dfaa1f81a7b2e08e66b7e51f0c" target="_top" xlink:title="Process one record with a bounded accumulation and update module globals.">
<polygon fill="white" stroke="#666666" points="289,-19 167,-19 167,0 289,0 289,-19"/>
<text text-anchor="middle" x="228" y="-7" font-family="Helvetica,sans-Serif" font-size="10.00">MyLib_ProcessRecord</text>
</a>
</g>
</g>
<!-- Node1&#45;&gt;Node3 -->
<g id="edge2_Node000001_Node000003" class="edge">
<title>Node1&#45;&gt;Node3</title>
<g id="a_edge2_Node000001_Node000003"><a xlink:title=" ">
<path fill="none" stroke="#63b8ff" d="M131.32,-20.83C139.67,-19.84 148.25,-18.82 156.68,-17.82"/>
<polygon fill="#63b8ff" stroke="#63b8ff" points="157.35,-21.27 166.87,-16.62 156.53,-14.32 157.35,-21.27"/>
</a>
</g>
</g>
<!-- Node4 -->
<g id="Node000004" class="node">
<title>Node4</title>
<g id="a_Node000004"><a xlink:href="MyLib_8c.html#ab76873d371c0f801495750c290ac869d" target="_top" xlink:title="Compute an adjusted value from a base value and an optional delta.">
<polygon fill="white" stroke="#666666" points="513,-19 325,-19 325,0 513,0 513,-19"/>
<text text-anchor="middle" x="419" y="-7" font-family="Helvetica,sans-Serif" font-size="10.00">MyLib_ComputeAdjustedValue_u32</text>
</a>
</g>
</g>
<!-- Node3&#45;&gt;Node4 -->
<g id="edge3_Node000003_Node000004" class="edge">
<title>Node3&#45;&gt;Node4</title>
<g id="a_edge3_Node000003_Node000004"><a xlink:title=" ">
<path fill="none" stroke="#63b8ff" d="M289.06,-9.5C297.39,-9.5 306.12,-9.5 314.96,-9.5"/>
<polygon fill="#63b8ff" stroke="#63b8ff" points="314.97,-13 324.97,-9.5 314.97,-6 314.97,-13"/>
</a>
</g>
</g>
<!-- Node4&#45;&gt;Node2 -->
<g id="edge4_Node000004_Node000002" class="edge">
<title>Node4&#45;&gt;Node2</title>
<g id="a_edge4_Node000004_Node000002"><a xlink:title=" ">
<path fill="none" stroke="#63b8ff" d="M511.77,-19.03C520.87,-19.97 529.97,-20.92 538.7,-21.82"/>
<polygon fill="#63b8ff" stroke="#63b8ff" points="538.46,-25.32 548.77,-22.87 539.18,-18.36 538.46,-25.32"/>
</a>
</g>
</g>
</g>
</svg>
