<?xml version="1.0" encoding="UTF-8" standalone="no"?>
<!DOCTYPE svg PUBLIC "-//W3C//DTD SVG 1.1//EN"
 "http://www.w3.org/Graphics/SVG/1.1/DTD/svg11.dtd">
<!-- Generated by graphviz version 2.43.0 (0)
 -->
<!-- Title: MyLib_ComputeAdjustedValue_u32 Pages: 1 -->
<!--zoomable 138 -->

<svg id="main" version="1.1" xmlns="http://www.w3.org/2000/svg" xmlns:xlink="http://www.w3.org/1999/xlink" xml:space="preserve" onload="init(evt)">
<style type="text/css"><![CDATA[
.node, .edge {opacity: 0.7;}
.node.selected, .edge.selected {opacity: 1;}
.edge:hover path { stroke: red; }
.edge:hover polygon { stroke: red; fill: red; }
]]></style>

<defs>
  <circle id="rim" cx="0" cy="0" r="7"/>
  <circle id="rim2" cx="0" cy="0" r="3.5"/>
  <g id="zoomPlus">
    <use xlink:href="#rim" fill="#404040"><set attributeName="fill" to="#808080" begin="zoomplus.mouseover" end="zoomplus.mouseout"/></use>
    <path d="M-4,0h8M0,-4v8" fill="none" stroke="white" stroke-width="1.5" pointer-events="none"/>
  </g>
  <g id="zoomMin">
    <use xlink:href="#rim" fill="#404040"><set attributeName="fill" to="#808080" begin="zoomminus.mouseover" end="zoomminus.mouseout"/></use>
    <path d="M-4,0h8" fill="none" stroke="white" stroke-width="1.5" pointer-events="none"/>
  </g>
  <g id="arrowUp" transform="translate(30 24)">
    <use xlink:href="#rim"/>
    <path pointer-events="none" fill="none" stroke="white" stroke-width="1.5" d="M0,-3.0v7 M-2.5,-0.5L0,-3.0L2.5,-0.5"/>
  </g>
  <g id="arrowRight" transform="rotate(90) translate(36 -43)">
    <use xlink:href="#rim"/>
    <path pointer-events="none" fill="none" stroke="white" stroke-width="1.5" d="M0,-3.0v7 M-2.5,-0.5L0,-3.0L2.5,-0.5"/>
  </g>
  <g id="arrowDown" transform="rotate(180) translate(-30 -48)">
    <use xlink:href="#rim"/>
    <path pointer-events="none" fill="none" stroke="white" stroke-width="1.5" d="M0,-3.0v7 M-2.5,-0.5L0,-3.0L2.5,-0.5"/>
  </g>
  <g id="arrowLeft" transform="rotate(270) translate(-36 17)">
    <use xlink:href="#rim"/>
    <path pointer-events="none" fill="none" stroke="white" stroke-width="1.5" d="M0,-3.0v7 M-2.5,-0.5L0,-3.0L2.5,-0.5"/>
  </g>
  <g id="resetDef">
    <use xlink:href="#rim2" fill="#404040"><set attributeName="fill" to="#808080" begin="reset.mouseover" end="reset.mouseout"/></use>
  </g>
</defs>
<script type="application/ecmascript">
var viewWidth = 783;
var viewHeight = 138;
var sectionId = 'dynsection-6';
</script>
<script type="application/ecmascript" xlink:href="svg.min.js"/>
<svg id="graph" class="graph">
<g id="viewport">
<title>MyLib_ComputeAdjustedValue_u32</title>
<!-- Node1 -->
<g id="Node000001" class="node">
<title>Node1</title>
<g id="a_Node000001"><a xlink:title="Compute an adjusted value from a base value and an optional delta.">
<polygon fill="#999999" stroke="#666666" points="775,-57 587,-57 587,-38 775,-38 775,-57"/>
<text text-anchor="middle" x="681" y="-45" font-family="Helvetica,sans-Serif" font-size="10.00">MyLib_ComputeAdjustedValue_u32</text>
</a>
</g>
</g>
<!-- Node2 -->
<g id="Node000002" class="node">
<title>Node2</title>
<g id="a_Node000002"><a xlink:href="AleLib_8c.html#a94d6f4e2dbaa27413d7096304c6b82cb" target="_top" xlink:title="Scale an array in&#45;place and return the sum of scaled elements.">
<polygon fill="white" stroke="#666666" points="551,-112 411,-112 411,-93 551,-93 551,-112"/>
<text text-anchor="middle" x="481" y="-100" font-family="Helvetica,sans-Serif" font-size="10.00">MyLib_AnalyzeArray_u32</text>
</a>
</g>
</g>
<!-- Node1&#45;&gt;Node2 -->
<g id="edge1_Node000001_Node000002" class="edge">
<title>Node1&#45;&gt;Node2</title>
<g id="a_edge1_Node000001_Node000002"><a xlink:title=" ">
<path fill="none" stroke="#63b8ff" d="M635.74,-59.79C599.69,-69.81 549.52,-83.74 516.43,-92.94"/>
<polygon fill="#63b8ff" stroke="#63b8ff" points="636.81,-63.13 645.51,-57.08 634.94,-56.38 636.81,-63.13"/>
</a>
</g>
</g>
<!-- Node4 -->
<g id="Node000004" class="node">
<title>Node4</title>
<g id="a_Node000004"><a xlink:href="AleLib_8c.html#acc6858dfaa1f81a7b2e08e66b7e51f0c" target="_top" xlink:title="Process one record with a bounded accumulation and update module globals.">
<polygon fill="white" stroke="#666666" points="542,-57 420,-57 420,-38 542,-38 542,-57"/>
<text text-anchor="middle" x="481" y="-45" font-family="Helvetica,sans-Serif" font-size="10.00">MyLib_ProcessRecord</text>
</a>
</g>
</g>
<!-- Node1&#45;&gt;Node4 -->
<g id="edge3_Node000001_Node000004" class="edge">
<title>Node1&#45;&gt;Node4</title>
<g id="a_edge3_Node000001_Node000004"><a xlink:title=" ">
<path fill="none" stroke="#63b8ff" d="M576.49,-47.5C564.77,-47.5 553.13,-47.5 542.24,-47.5"/>
<polygon fill="#63b8ff" stroke="#63b8ff" points="576.8,-51 586.8,-47.5 576.8,-44 576.8,-51"/>
</a>
</g>
</g>
<!-- Node7 -->
<g id="Node000007" class="node">
<title>Node7</title>
<g id="a_Node000007"><a xlink:href="AleLib_8c.html#a8740268c394e6c82a7a0128bb13067fa" target="_top" xlink:title="Execute one step of an internal state machine operating on a record and updating the module counter.">
<polygon fill="white" stroke="#666666" points="375,-19 221,-19 221,0 375,0 375,-19"/>
<text text-anchor="middle" x="298" y="-7" font-family="Helvetica,sans-Serif" font-size="10.00">MyLib_RunStateMachine_u8</text>
</a>
</g>
</g>
<!-- Node1&#45;&gt;Node7 -->
<g id="edge8_Node000001_Node000007" class="edge">
<title>Node1&#45;&gt;Node7</title>
<g id="a_edge8_Node000001_Node000007"><a xlink:title=" ">
<path fill="none" stroke="#63b8ff" d="M611.35,-36.47C591.88,-33.59 570.64,-30.68 551,-28.5 492.13,-21.95 425.27,-17.03 375.22,-13.83"/>
<polygon fill="#63b8ff" stroke="#63b8ff" points="610.95,-39.94 621.35,-37.96 611.98,-33.02 610.95,-39.94"/>
</a>
</g>
</g>
<!-- Node3 -->
<g id="Node000003" class="node">
<title>Node3</title>
<g id="a_Node000003"><a xlink:href="AleLib_8c.html#a9a012e582e10fbe8211f3dec731d71f5" target="_top" xlink:title="Scale an array in&#45;place and return the sum of scaled elements.">
<polygon fill="white" stroke="#666666" points="350.5,-130 245.5,-130 245.5,-111 350.5,-111 350.5,-130"/>
<text text-anchor="middle" x="298" y="-118" font-family="Helvetica,sans-Serif" font-size="10.00">AnalyzeArray_u32</text>
</a>
</g>
</g>
<!-- Node2&#45;&gt;Node3 -->
<g id="edge2_Node000002_Node000003" class="edge">
<title>Node2&#45;&gt;Node3</title>
<g id="a_edge2_Node000002_Node000003"><a xlink:title=" ">
<path fill="none" stroke="#63b8ff" d="M400.4,-110.42C383.55,-112.09 366.2,-113.82 350.71,-115.36"/>
<polygon fill="#63b8ff" stroke="#63b8ff" points="401.19,-113.85 410.8,-109.38 400.5,-106.89 401.19,-113.85"/>
</a>
</g>
</g>
<!-- Node5 -->
<g id="Node000005" class="node">
<title>Node5</title>
<g id="a_Node000005"><a xlink:href="AleLib_8c.html#add13a4d8d439c55a7a840a180c935804" target="_top" xlink:title="Run an orchestration sequence and return a combined result.">
<polygon fill="white" stroke="#666666" points="363.5,-93 232.5,-93 232.5,-74 363.5,-74 363.5,-93"/>
<text text-anchor="middle" x="298" y="-81" font-family="Helvetica,sans-Serif" font-size="10.00">MyLib_Orchestrate_u32</text>
</a>
</g>
</g>
<!-- Node4&#45;&gt;Node5 -->
<g id="edge4_Node000004_Node000005" class="edge">
<title>Node4&#45;&gt;Node5</title>
<g id="a_edge4_Node000004_Node000005"><a xlink:title=" ">
<path fill="none" stroke="#63b8ff" d="M421.85,-59.07C397.66,-63.88 369.93,-69.39 346.94,-73.97"/>
<polygon fill="#63b8ff" stroke="#63b8ff" points="422.85,-62.44 431.97,-57.05 421.48,-55.57 422.85,-62.44"/>
</a>
</g>
</g>
<!-- Node4&#45;&gt;Node7 -->
<g id="edge6_Node000004_Node000007" class="edge">
<title>Node4&#45;&gt;Node7</title>
<g id="a_edge6_Node000004_Node000007"><a xlink:title=" ">
<path fill="none" stroke="#63b8ff" d="M424.36,-35.82C398.69,-30.43 368.61,-24.11 344.35,-19.02"/>
<polygon fill="#63b8ff" stroke="#63b8ff" points="423.82,-39.28 434.33,-37.91 425.26,-32.43 423.82,-39.28"/>
</a>
</g>
</g>
<!-- Node8 -->
<g id="Node000008" class="node">
<title>Node8</title>
<g id="a_Node000008"><a xlink:href="AleLib_8c.html#a09e209253fe184eddc89f13fbf751b50" target="_top" xlink:title="Process one record with a bounded accumulation and update module globals.">
<polygon fill="white" stroke="#666666" points="342,-56 254,-56 254,-37 342,-37 342,-56"/>
<text text-anchor="middle" x="298" y="-44" font-family="Helvetica,sans-Serif" font-size="10.00">ProcessRecord</text>
</a>
</g>
</g>
<!-- Node4&#45;&gt;Node8 -->
<g id="edge7_Node000004_Node000008" class="edge">
<title>Node4&#45;&gt;Node8</title>
<g id="a_edge7_Node000004_Node000008"><a xlink:title=" ">
<path fill="none" stroke="#63b8ff" d="M409.68,-47.11C386.95,-46.99 362.42,-46.85 342.25,-46.74"/>
<polygon fill="#63b8ff" stroke="#63b8ff" points="409.96,-50.61 419.98,-47.17 410,-43.61 409.96,-50.61"/>
</a>
</g>
</g>
<!-- Node6 -->
<g id="Node000006" class="node">
<title>Node6</title>
<g id="a_Node000006"><a xlink:href="AleLib_8c.html#a2c78229facc056079a8d10f683645168" target="_top" xlink:title="Function that reuses existing MyLib services from the same library.">
<polygon fill="white" stroke="#666666" points="185,-93 0,-93 0,-74 185,-74 185,-93"/>
<text text-anchor="middle" x="92.5" y="-81" font-family="Helvetica,sans-Serif" font-size="10.00">Syntax_ReusesMyLibServices_u32</text>
</a>
</g>
</g>
<!-- Node5&#45;&gt;Node6 -->
<g id="edge5_Node000005_Node000006" class="edge">
<title>Node5&#45;&gt;Node6</title>
<g id="a_edge5_Node000005_Node000006"><a xlink:title=" ">
<path fill="none" stroke="#63b8ff" d="M222.32,-83.5C210.22,-83.5 197.57,-83.5 185.13,-83.5"/>
<polygon fill="#63b8ff" stroke="#63b8ff" points="222.33,-87 232.33,-83.5 222.33,-80 222.33,-87"/>
</a>
</g>
</g>
</g>
</svg>

<g id="navigator" transform="translate(0 0)" fill="#404254">
  <rect fill="#f2f5e9" fill-opacity="0.5" stroke="#606060" stroke-width=".5" x="0" y="0" width="60" height="60"/>
  <use id="zoomplus" xlink:href="#zoomPlus" x="17" y="9" onmousedown="handleZoom(evt,'in')"/>
  <use id="zoomminus" xlink:href="#zoomMin" x="42" y="9" onmousedown="handleZoom(evt,'out')"/>
  <use id="reset" xlink:href="#resetDef" x="30" y="36" onmousedown="handleReset()"/>
   <use id="arrowup" xlink:href="#arrowUp" x="0" y="0" onmousedown="handlePan(0,-1)"/>
  <use id="arrowright" xlink:href="#arrowRight" x="0" y="0" onmousedown="handlePan(1,0)"/>
  <use id="arrowdown" xlink:href="#arrowDown" x="0" y="0" onmousedown="handlePan(0,1)"/>
  <use id="arrowleft" xlink:href="#arrowLeft" x="0" y="0" onmousedown="handlePan(-1,0)"/>
</g>
<svg viewBox="0 0 15 15" width="100%" height="30px" preserveAspectRatio="xMaxYMin meet">
 <g id="arrow_out" transform="scale(0.3 0.3)">
  <a xlink:href="AleLib_8c_ab76873d371c0f801495750c290ac869d_icgraph_org.svg" target="_base">
   <rect id="button" ry="5" rx="5" y="6" x="6" height="38" width="38"
        fill="#f2f5e9" fill-opacity="0.5" stroke="#606060" stroke-width="1.0"/>
   <path id="arrow"
     d="M 11.500037,31.436501 C 11.940474,20.09759 22.043105,11.32322 32.158766,21.979434 L 37.068811,17.246167 C 37.068811,17.246167 37.088388,32 37.088388,32 L 22.160133,31.978069 C 22.160133,31.978069 26.997745,27.140456 26.997745,27.140456 C 18.528582,18.264221 13.291696,25.230495 11.500037,31.436501 z"
     style="fill:#404040;"/>
  </a>
 </g>
</svg>

<style type='text/css'>
<![CDATA[
[data-mouse-over-selected='false'] { opacity: 0.7; }
[data-mouse-over-selected='true']  { opacity: 1.0; }
]]>
</style>
<script type="application/ecmascript"><![CDATA[
document.addEventListener('DOMContentLoaded', (event) => {
  highlightEdges();
  highlightAdjacentNodes();
});
]]></script>
</svg>
