<?xml version="1.0" encoding="UTF-8" standalone="no"?>
<!DOCTYPE svg PUBLIC "-//W3C//DTD SVG 1.1//EN"
 "http://www.w3.org/Graphics/SVG/1.1/DTD/svg11.dtd">
<!-- Generated by graphviz version 2.43.0 (0)
 -->
<!-- Title: InternalHelper_u32 Pages: 1 -->
<svg width="929pt" height="140pt"
 viewBox="0.00 0.00 929.00 140.00" xmlns="http://www.w3.org/2000/svg" xmlns:xlink="http://www.w3.org/1999/xlink">
<g id="graph0" class="graph" transform="scale(1 1) rotate(0) translate(4 136)">
<title>InternalHelper_u32</title>
<!-- Node1 -->
<g id="Node000001" class="node">
<title>Node1</title>
<g id="a_Node000001"><a xlink:title=" ">
<polygon fill="#999999" stroke="#666666" points="921,-37 811,-37 811,-18 921,-18 921,-37"/>
<text text-anchor="middle" x="866" y="-25" font-family="Helvetica,sans-Serif" font-size="10.00">InternalHelper_u32</text>
</a>
</g>
</g>
<!-- Node2 -->
<g id="Node000002" class="node">
<title>Node2</title>
<g id="a_Node000002"><a xlink:href="AleLib_8c.html#ab76873d371c0f801495750c290ac869d" target="_top" xlink:title="Compute an adjusted value from a base value and an optional delta.">
<polygon fill="white" stroke="#666666" points="775,-75 587,-75 587,-56 775,-56 775,-75"/>
<text text-anchor="middle" x="681" y="-63" font-family="Helvetica,sans-Serif" font-size="10.00">MyLib_ComputeAdjustedValue_u32</text>
</a>
</g>
</g>
<!-- Node1&#45;&gt;Node2 -->
<g id="edge1_Node000001_Node000002" class="edge">
<title>Node1&#45;&gt;Node2</title>
<g id="a_edge1_Node000001_Node000002"><a xlink:title=" ">
<path fill="none" stroke="#63b8ff" d="M808.75,-39.18C782.79,-44.57 752.38,-50.89 727.85,-55.98"/>
<polygon fill="#63b8ff" stroke="#63b8ff" points="809.74,-42.55 818.82,-37.09 808.32,-35.7 809.74,-42.55"/>
</a>
</g>
</g>
<!-- Node6 -->
<g id="Node000006" class="node">
<title>Node6</title>
<g id="a_Node000006"><a xlink:href="AleLib_8c.html#add13a4d8d439c55a7a840a180c935804" target="_top" xlink:title="Run an orchestration sequence and return a combined result.">
<polygon fill="white" stroke="#666666" points="363.5,-19 232.5,-19 232.5,0 363.5,0 363.5,-19"/>
<text text-anchor="middle" x="298" y="-7" font-family="Helvetica,sans-Serif" font-size="10.00">MyLib_Orchestrate_u32</text>
</a>
</g>
</g>
<!-- Node1&#45;&gt;Node6 -->
<g id="edge10_Node000001_Node000006" class="edge">
<title>Node1&#45;&gt;Node6</title>
<g id="a_edge10_Node000001_Node000006"><a xlink:title=" ">
<path fill="none" stroke="#63b8ff" d="M800.82,-25.46C692.15,-22 473.12,-15.04 363.94,-11.57"/>
<polygon fill="#63b8ff" stroke="#63b8ff" points="800.88,-28.96 810.99,-25.78 801.1,-21.97 800.88,-28.96"/>
</a>
</g>
</g>
<!-- Node3 -->
<g id="Node000003" class="node">
<title>Node3</title>
<g id="a_Node000003"><a xlink:href="AleLib_8c.html#a94d6f4e2dbaa27413d7096304c6b82cb" target="_top" xlink:title="Scale an array in&#45;place and return the sum of scaled elements.">
<polygon fill="white" stroke="#666666" points="551,-132 411,-132 411,-113 551,-113 551,-132"/>
<text text-anchor="middle" x="481" y="-120" font-family="Helvetica,sans-Serif" font-size="10.00">MyLib_AnalyzeArray_u32</text>
</a>
</g>
</g>
<!-- Node2&#45;&gt;Node3 -->
<g id="edge2_Node000002_Node000003" class="edge">
<title>Node2&#45;&gt;Node3</title>
<g id="a_edge2_Node000002_Node000003"><a xlink:title=" ">
<path fill="none" stroke="#63b8ff" d="M636.98,-77.88C600.42,-88.41 548.7,-103.3 515.25,-112.93"/>
<polygon fill="#63b8ff" stroke="#63b8ff" points="638.22,-81.17 646.86,-75.04 636.28,-74.44 638.22,-81.17"/>
</a>
</g>
</g>
<!-- Node5 -->
<g id="Node000005" class="node">
<title>Node5</title>
<g id="a_Node000005"><a xlink:href="AleLib_8c.html#acc6858dfaa1f81a7b2e08e66b7e51f0c" target="_top" xlink:title="Process one record with a bounded accumulation and update module globals.">
<polygon fill="white" stroke="#666666" points="542,-56 420,-56 420,-37 542,-37 542,-56"/>
<text text-anchor="middle" x="481" y="-44" font-family="Helvetica,sans-Serif" font-size="10.00">MyLib_ProcessRecord</text>
</a>
</g>
</g>
<!-- Node2&#45;&gt;Node5 -->
<g id="edge4_Node000002_Node000005" class="edge">
<title>Node2&#45;&gt;Node5</title>
<g id="a_edge4_Node000002_Node000005"><a xlink:title=" ">
<path fill="none" stroke="#63b8ff" d="M576.49,-55.57C564.77,-54.44 553.13,-53.33 542.24,-52.28"/>
<polygon fill="#63b8ff" stroke="#63b8ff" points="576.51,-59.09 586.8,-56.56 577.18,-52.12 576.51,-59.09"/>
</a>
</g>
</g>
<!-- Node8 -->
<g id="Node000008" class="node">
<title>Node8</title>
<g id="a_Node000008"><a xlink:href="AleLib_8c.html#a8740268c394e6c82a7a0128bb13067fa" target="_top" xlink:title="Execute one step of an internal state machine operating on a record and updating the module counter.">
<polygon fill="white" stroke="#666666" points="375,-94 221,-94 221,-75 375,-75 375,-94"/>
<text text-anchor="middle" x="298" y="-82" font-family="Helvetica,sans-Serif" font-size="10.00">MyLib_RunStateMachine_u8</text>
</a>
</g>
</g>
<!-- Node2&#45;&gt;Node8 -->
<g id="edge9_Node000002_Node000008" class="edge">
<title>Node2&#45;&gt;Node8</title>
<g id="a_edge9_Node000002_Node000008"><a xlink:title=" ">
<path fill="none" stroke="#63b8ff" d="M576.74,-70.65C513.17,-73.82 433.07,-77.81 375.25,-80.7"/>
<polygon fill="#63b8ff" stroke="#63b8ff" points="576.98,-74.14 586.8,-70.15 576.63,-67.15 576.98,-74.14"/>
</a>
</g>
</g>
<!-- Node4 -->
<g id="Node000004" class="node">
<title>Node4</title>
<g id="a_Node000004"><a xlink:href="AleLib_8c.html#a9a012e582e10fbe8211f3dec731d71f5" target="_top" xlink:title="Scale an array in&#45;place and return the sum of scaled elements.">
<polygon fill="white" stroke="#666666" points="350.5,-132 245.5,-132 245.5,-113 350.5,-113 350.5,-132"/>
<text text-anchor="middle" x="298" y="-120" font-family="Helvetica,sans-Serif" font-size="10.00">AnalyzeArray_u32</text>
</a>
</g>
</g>
<!-- Node3&#45;&gt;Node4 -->
<g id="edge3_Node000003_Node000004" class="edge">
<title>Node3&#45;&gt;Node4</title>
<g id="a_edge3_Node000003_Node000004"><a xlink:title=" ">
<path fill="none" stroke="#63b8ff" d="M400.4,-122.5C383.55,-122.5 366.2,-122.5 350.71,-122.5"/>
<polygon fill="#63b8ff" stroke="#63b8ff" points="400.8,-126 410.8,-122.5 400.8,-119 400.8,-126"/>
</a>
</g>
</g>
<!-- Node5&#45;&gt;Node6 -->
<g id="edge5_Node000005_Node000006" class="edge">
<title>Node5&#45;&gt;Node6</title>
<g id="a_edge5_Node000005_Node000006"><a xlink:title=" ">
<path fill="none" stroke="#63b8ff" d="M423.33,-34.92C398.39,-29.82 369.45,-23.9 345.77,-19.06"/>
<polygon fill="#63b8ff" stroke="#63b8ff" points="422.89,-38.4 433.39,-36.97 424.29,-31.54 422.89,-38.4"/>
</a>
</g>
</g>
<!-- Node5&#45;&gt;Node8 -->
<g id="edge7_Node000005_Node000008" class="edge">
<title>Node5&#45;&gt;Node8</title>
<g id="a_edge7_Node000005_Node000008"><a xlink:title=" ">
<path fill="none" stroke="#63b8ff" d="M424.36,-58.18C398.69,-63.57 368.61,-69.89 344.35,-74.98"/>
<polygon fill="#63b8ff" stroke="#63b8ff" points="425.26,-61.57 434.33,-56.09 423.82,-54.72 425.26,-61.57"/>
</a>
</g>
</g>
<!-- Node9 -->
<g id="Node000009" class="node">
<title>Node9</title>
<g id="a_Node000009"><a xlink:href="AleLib_8c.html#a09e209253fe184eddc89f13fbf751b50" target="_top" xlink:title="Process one record with a bounded accumulation and update module globals.">
<polygon fill="white" stroke="#666666" points="342,-56 254,-56 254,-37 342,-37 342,-56"/>
<text text-anchor="middle" x="298" y="-44" font-family="Helvetica,sans-Serif" font-size="10.00">ProcessRecord</text>
</a>
</g>
</g>
<!-- Node5&#45;&gt;Node9 -->
<g id="edge8_Node000005_Node000009" class="edge">
<title>Node5&#45;&gt;Node9</title>
<g id="a_edge8_Node000005_Node000009"><a xlink:title=" ">
<path fill="none" stroke="#63b8ff" d="M409.68,-46.5C386.95,-46.5 362.42,-46.5 342.25,-46.5"/>
<polygon fill="#63b8ff" stroke="#63b8ff" points="409.98,-50 419.98,-46.5 409.98,-43 409.98,-50"/>
</a>
</g>
</g>
<!-- Node7 -->
<g id="Node000007" class="node">
<title>Node7</title>
<g id="a_Node000007"><a xlink:href="AleLib_8c.html#a2c78229facc056079a8d10f683645168" target="_top" xlink:title="Function that reuses existing MyLib services from the same library.">
<polygon fill="white" stroke="#666666" points="185,-19 0,-19 0,0 185,0 185,-19"/>
<text text-anchor="middle" x="92.5" y="-7" font-family="Helvetica,sans-Serif" font-size="10.00">Syntax_ReusesMyLibServices_u32</text>
</a>
</g>
</g>
<!-- Node6&#45;&gt;Node7 -->
<g id="edge6_Node000006_Node000007" class="edge">
<title>Node6&#45;&gt;Node7</title>
<g id="a_edge6_Node000006_Node000007"><a xlink:title=" ">
<path fill="none" stroke="#63b8ff" d="M222.32,-9.5C210.22,-9.5 197.57,-9.5 185.13,-9.5"/>
<polygon fill="#63b8ff" stroke="#63b8ff" points="222.33,-13 232.33,-9.5 222.33,-6 222.33,-13"/>
</a>
</g>
</g>
</g>
</svg>
