<?xml version="1.0" encoding="us-ascii" standalone="no"?><svg xmlns="http://www.w3.org/2000/svg" xmlns:xlink="http://www.w3.org/1999/xlink" contentStyleType="text/css" height="766px" preserveAspectRatio="none" style="width:1349px;height:766px;background:#FFFFFF;" version="1.1" viewBox="0 0 1349 766" width="1349px" zoomAndPan="magnify"><defs/><g><ellipse cx="664.5" cy="20" fill="#222222" rx="10" ry="10" style="stroke:#222222;stroke-width:1.0;"/><rect fill="#F1F1F1" height="33.9688" rx="12.5" ry="12.5" style="stroke:#181818;stroke-width:0.5;" width="171" x="579" y="50"/><text fill="#000000" font-family="sans-serif" font-size="12" lengthAdjust="spacing" textLength="151" x="589" y="71.1387">static uint8_t l_State_u8</text><rect fill="#F1F1F1" height="33.9688" rx="12.5" ry="12.5" style="stroke:#181818;stroke-width:0.5;" width="233" x="548" y="103.9688"/><text fill="#000000" font-family="sans-serif" font-size="12" lengthAdjust="spacing" textLength="213" x="558" y="125.1074">static MyLib_record_t l_LastRecord</text><rect fill="#F1F1F1" height="33.9688" rx="12.5" ry="12.5" style="stroke:#181818;stroke-width:0.5;" width="234" x="547.5" y="157.9375"/><text fill="#000000" font-family="sans-serif" font-size="12" lengthAdjust="spacing" textLength="214" x="557.5" y="179.0762">static uint32_t l_LastAdjusted_u32</text><rect fill="#F1F1F1" height="33.9688" rx="12.5" ry="12.5" style="stroke:#181818;stroke-width:0.5;" width="142" x="593.5" y="211.9063"/><text fill="#000000" font-family="sans-serif" font-size="12" lengthAdjust="spacing" textLength="122" x="603.5" y="233.0449">uint8_t l_ret_u8 = 0</text><rect fill="#F1F1F1" height="33.9688" rx="12.5" ry="12.5" style="stroke:#181818;stroke-width:0.5;" width="221" x="554" y="265.875"/><text fill="#000000" font-family="sans-serif" font-size="12" lengthAdjust="spacing" textLength="201" x="564" y="287.0137">uint32_t l_UpdateValue_u32 = 0</text><polygon fill="#F1F1F1" points="635,319.8438,694,319.8438,706,331.8438,694,343.8438,635,343.8438,623,331.8438,635,319.8438" style="stroke:#181818;stroke-width:0.5;"/><text fill="#000000" font-family="sans-serif" font-size="11" lengthAdjust="spacing" textLength="59" x="635" y="335.6519">l_State_u8</text><polygon fill="#F1F1F1" points="130.75,379.4531,221.75,379.4531,233.75,391.4531,221.75,403.4531,130.75,403.4531,118.75,391.4531,130.75,379.4531" style="stroke:#181818;stroke-width:0.5;"/><text fill="#000000" font-family="sans-serif" font-size="11" lengthAdjust="spacing" textLength="91" x="130.75" y="395.2612">rec_pc == NULL</text><text fill="#000000" font-family="sans-serif" font-size="11" lengthAdjust="spacing" textLength="20" x="98.75" y="388.8589">yes</text><text fill="#000000" font-family="sans-serif" font-size="11" lengthAdjust="spacing" textLength="14" x="233.75" y="388.8589">no</text><rect fill="#F1F1F1" height="33.9688" rx="12.5" ry="12.5" style="stroke:#181818;stroke-width:0.5;" width="95" x="11" y="413.4531"/><text fill="#000000" font-family="sans-serif" font-size="12" lengthAdjust="spacing" textLength="75" x="21" y="434.5918">l_ret_u8 = 1</text><rect fill="#F1F1F1" height="33.9688" rx="12.5" ry="12.5" style="stroke:#181818;stroke-width:0.5;" width="336" x="126" y="413.4531"/><text fill="#000000" font-family="sans-serif" font-size="12" lengthAdjust="spacing" textLength="316" x="136" y="434.5918">MyLib_UpdateGlobalRecord(&amp;l_LastRecord, rec_pc)</text><rect fill="#F1F1F1" height="33.9688" rx="12.5" ry="12.5" style="stroke:#181818;stroke-width:0.5;" width="111" x="238.5" y="482.4219"/><text fill="#000000" font-family="sans-serif" font-size="12" lengthAdjust="spacing" textLength="91" x="248.5" y="503.5605">l_State_u8 = 1</text><rect fill="#F1F1F1" height="33.9688" rx="12.5" ry="12.5" style="stroke:#181818;stroke-width:0.5;" width="95" x="246.5" y="551.3906"/><text fill="#000000" font-family="sans-serif" font-size="12" lengthAdjust="spacing" textLength="75" x="256.5" y="572.5293">l_ret_u8 = 0</text><polygon fill="#F1F1F1" points="176.25,591.3594,188.25,603.3594,176.25,615.3594,164.25,603.3594,176.25,591.3594" style="stroke:#181818;stroke-width:0.5;"/><rect fill="#F1F1F1" height="33.9688" rx="12.5" ry="12.5" style="stroke:#181818;stroke-width:0.5;" width="400" x="513" y="379.4531"/><text fill="#000000" font-family="sans-serif" font-size="12" lengthAdjust="spacing" textLength="380" x="523" y="400.5918">MyLib_ProcessRecord(&amp;l_LastRecord, MYLIB_MULT_VALUE_U8)</text><rect fill="#F1F1F1" height="47.9375" rx="12.5" ry="12.5" style="stroke:#181818;stroke-width:0.5;" width="482" x="472" y="448.4219"/><text fill="#000000" font-family="sans-serif" font-size="12" lengthAdjust="spacing" textLength="134" x="482" y="469.5605">l_LastAdjusted_u32 =</text><text fill="#000000" font-family="sans-serif" font-size="12" lengthAdjust="spacing" textLength="462" x="482" y="483.5293">MyLib_ComputeAdjustedValue_u32(l_LastRecord.value_u32, delta_pc_u16)</text><rect fill="#F1F1F1" height="33.9688" rx="12.5" ry="12.5" style="stroke:#181818;stroke-width:0.5;" width="111" x="657.5" y="531.3594"/><text fill="#000000" font-family="sans-serif" font-size="12" lengthAdjust="spacing" textLength="91" x="667.5" y="552.498">l_State_u8 = 2</text><rect fill="#F1F1F1" height="33.9688" rx="12.5" ry="12.5" style="stroke:#181818;stroke-width:0.5;" width="95" x="665.5" y="600.3281"/><text fill="#000000" font-family="sans-serif" font-size="12" lengthAdjust="spacing" textLength="75" x="675.5" y="621.4668">l_ret_u8 = 0</text><rect fill="#F1F1F1" height="33.9688" rx="12.5" ry="12.5" style="stroke:#181818;stroke-width:0.5;" width="350" x="976" y="379.4531"/><text fill="#000000" font-family="sans-serif" font-size="12" lengthAdjust="spacing" textLength="330" x="986" y="400.5918">l_UpdateValue_u32 = add_u32 + l_LastAdjusted_u32</text><rect fill="#F1F1F1" height="33.9688" rx="12.5" ry="12.5" style="stroke:#181818;stroke-width:0.5;" width="374" x="964" y="448.4219"/><text fill="#000000" font-family="sans-serif" font-size="12" lengthAdjust="spacing" textLength="354" x="974" y="469.5605">l_ret_u8 = MyLib_UpdateCounter_u8(l_UpdateValue_u32)</text><rect fill="#F1F1F1" height="33.9688" rx="12.5" ry="12.5" style="stroke:#181818;stroke-width:0.5;" width="111" x="1095.5" y="517.3906"/><text fill="#000000" font-family="sans-serif" font-size="12" lengthAdjust="spacing" textLength="91" x="1105.5" y="538.5293">l_State_u8 = 0</text><rect fill="#F1F1F1" height="33.9688" rx="12.5" ry="12.5" style="stroke:#181818;stroke-width:0.5;" width="112" x="608.5" y="679.2969"/><text fill="#000000" font-family="sans-serif" font-size="12" lengthAdjust="spacing" textLength="92" x="618.5" y="700.4355">return l_ret_u8</text><ellipse cx="664.5" cy="744.2656" fill="none" rx="11" ry="11" style="stroke:#222222;stroke-width:1.0;"/><ellipse cx="664.5" cy="744.2656" fill="#222222" rx="6" ry="6" style="stroke:#222222;stroke-width:1.0;"/><line style="stroke:#181818;stroke-width:1.0;" x1="664.5" x2="664.5" y1="30" y2="50"/><polygon fill="#181818" points="660.5,40,664.5,50,668.5,40,664.5,44" style="stroke:#181818;stroke-width:1.0;"/><line style="stroke:#181818;stroke-width:1.0;" x1="664.5" x2="664.5" y1="83.9688" y2="103.9688"/><polygon fill="#181818" points="660.5,93.9688,664.5,103.9688,668.5,93.9688,664.5,97.9688" style="stroke:#181818;stroke-width:1.0;"/><line style="stroke:#181818;stroke-width:1.0;" x1="664.5" x2="664.5" y1="137.9375" y2="157.9375"/><polygon fill="#181818" points="660.5,147.9375,664.5,157.9375,668.5,147.9375,664.5,151.9375" style="stroke:#181818;stroke-width:1.0;"/><line style="stroke:#181818;stroke-width:1.0;" x1="664.5" x2="664.5" y1="191.9063" y2="211.9063"/><polygon fill="#181818" points="660.5,201.9063,664.5,211.9063,668.5,201.9063,664.5,205.9063" style="stroke:#181818;stroke-width:1.0;"/><line style="stroke:#181818;stroke-width:1.0;" x1="664.5" x2="664.5" y1="245.875" y2="265.875"/><polygon fill="#181818" points="660.5,255.875,664.5,265.875,668.5,255.875,664.5,259.875" style="stroke:#181818;stroke-width:1.0;"/><line style="stroke:#181818;stroke-width:1.0;" x1="294" x2="294" y1="447.4219" y2="482.4219"/><polygon fill="#181818" points="290,472.4219,294,482.4219,298,472.4219,294,476.4219" style="stroke:#181818;stroke-width:1.0;"/><line style="stroke:#181818;stroke-width:1.0;" x1="294" x2="294" y1="516.3906" y2="551.3906"/><polygon fill="#181818" points="290,541.3906,294,551.3906,298,541.3906,294,545.3906" style="stroke:#181818;stroke-width:1.0;"/><line style="stroke:#181818;stroke-width:1.0;" x1="118.75" x2="58.5" y1="391.4531" y2="391.4531"/><line style="stroke:#181818;stroke-width:1.0;" x1="58.5" x2="58.5" y1="391.4531" y2="413.4531"/><polygon fill="#181818" points="54.5,403.4531,58.5,413.4531,62.5,403.4531,58.5,407.4531" style="stroke:#181818;stroke-width:1.0;"/><line style="stroke:#181818;stroke-width:1.0;" x1="233.75" x2="294" y1="391.4531" y2="391.4531"/><line style="stroke:#181818;stroke-width:1.0;" x1="294" x2="294" y1="391.4531" y2="413.4531"/><polygon fill="#181818" points="290,403.4531,294,413.4531,298,403.4531,294,407.4531" style="stroke:#181818;stroke-width:1.0;"/><line style="stroke:#181818;stroke-width:1.0;" x1="58.5" x2="58.5" y1="447.4219" y2="603.3594"/><line style="stroke:#181818;stroke-width:1.0;" x1="58.5" x2="164.25" y1="603.3594" y2="603.3594"/><polygon fill="#181818" points="154.25,599.3594,164.25,603.3594,154.25,607.3594,158.25,603.3594" style="stroke:#181818;stroke-width:1.0;"/><line style="stroke:#181818;stroke-width:1.0;" x1="294" x2="294" y1="585.3594" y2="603.3594"/><line style="stroke:#181818;stroke-width:1.0;" x1="294" x2="188.25" y1="603.3594" y2="603.3594"/><polygon fill="#181818" points="198.25,599.3594,188.25,603.3594,198.25,607.3594,194.25,603.3594" style="stroke:#181818;stroke-width:1.0;"/><line style="stroke:#181818;stroke-width:1.0;" x1="176.25" x2="176.25" y1="615.3594" y2="650.3594"/><polygon fill="#181818" points="172.25,640.3594,176.25,650.3594,180.25,640.3594,176.25,644.3594" style="stroke:#181818;stroke-width:1.0;"/><line style="stroke:#181818;stroke-width:1.0;" x1="713" x2="713" y1="413.4219" y2="448.4219"/><polygon fill="#181818" points="709,438.4219,713,448.4219,717,438.4219,713,442.4219" style="stroke:#181818;stroke-width:1.0;"/><line style="stroke:#181818;stroke-width:1.0;" x1="713" x2="713" y1="496.3594" y2="531.3594"/><polygon fill="#181818" points="709,521.3594,713,531.3594,717,521.3594,713,525.3594" style="stroke:#181818;stroke-width:1.0;"/><line style="stroke:#181818;stroke-width:1.0;" x1="713" x2="713" y1="565.3281" y2="600.3281"/><polygon fill="#181818" points="709,590.3281,713,600.3281,717,590.3281,713,594.3281" style="stroke:#181818;stroke-width:1.0;"/><line style="stroke:#181818;stroke-width:1.0;" x1="713" x2="713" y1="634.2969" y2="669.2969"/><polygon fill="#181818" points="709,659.2969,713,669.2969,717,659.2969,713,663.2969" style="stroke:#181818;stroke-width:1.0;"/><line style="stroke:#181818;stroke-width:1.0;" x1="1151" x2="1151" y1="413.4219" y2="448.4219"/><polygon fill="#181818" points="1147,438.4219,1151,448.4219,1155,438.4219,1151,442.4219" style="stroke:#181818;stroke-width:1.0;"/><line style="stroke:#181818;stroke-width:1.0;" x1="1151" x2="1151" y1="482.3906" y2="517.3906"/><polygon fill="#181818" points="1147,507.3906,1151,517.3906,1155,507.3906,1151,511.3906" style="stroke:#181818;stroke-width:1.0;"/><line style="stroke:#181818;stroke-width:1.0;" x1="1151" x2="1151" y1="551.3594" y2="586.3594"/><polygon fill="#181818" points="1147,576.3594,1151,586.3594,1155,576.3594,1151,580.3594" style="stroke:#181818;stroke-width:1.0;"/><line style="stroke:#181818;stroke-width:1.0;" x1="623" x2="176.25" y1="331.8438" y2="331.8438"/><line style="stroke:#181818;stroke-width:1.0;" x1="176.25" x2="176.25" y1="331.8438" y2="379.4531"/><polygon fill="#181818" points="172.25,369.4531,176.25,379.4531,180.25,369.4531,176.25,373.4531" style="stroke:#181818;stroke-width:1.0;"/><text fill="#000000" font-family="sans-serif" font-size="11" lengthAdjust="spacing" textLength="32" x="176.25" y="359.4565">0: Init</text><line style="stroke:#181818;stroke-width:1.0;" x1="706" x2="1151" y1="331.8438" y2="331.8438"/><line style="stroke:#181818;stroke-width:1.0;" x1="1151" x2="1151" y1="331.8438" y2="379.4531"/><polygon fill="#181818" points="1147,369.4531,1151,379.4531,1155,369.4531,1151,373.4531" style="stroke:#181818;stroke-width:1.0;"/><text fill="#000000" font-family="sans-serif" font-size="11" lengthAdjust="spacing" textLength="102" x="1151" y="359.4565">2: Update counter</text><line style="stroke:#181818;stroke-width:1.0;" x1="664.5" x2="664.5" y1="343.8438" y2="355.7135"/><line style="stroke:#181818;stroke-width:1.0;" x1="664.5" x2="713" y1="355.7135" y2="355.7135"/><line style="stroke:#181818;stroke-width:1.0;" x1="713" x2="713" y1="355.7135" y2="379.4531"/><polygon fill="#181818" points="709,369.4531,713,379.4531,717,369.4531,713,373.4531" style="stroke:#181818;stroke-width:1.0;"/><text fill="#000000" font-family="sans-serif" font-size="11" lengthAdjust="spacing" textLength="61" x="664.5" y="360.4565">1: Process</text><line style="stroke:#181818;stroke-width:1.0;" x1="664.5" x2="664.5" y1="299.8438" y2="319.8438"/><polygon fill="#181818" points="660.5,309.8438,664.5,319.8438,668.5,309.8438,664.5,313.8438" style="stroke:#181818;stroke-width:1.0;"/><line style="stroke:#181818;stroke-width:1.0;" x1="664.5" x2="664.5" y1="713.2656" y2="733.2656"/><polygon fill="#181818" points="660.5,723.2656,664.5,733.2656,668.5,723.2656,664.5,727.2656" style="stroke:#181818;stroke-width:1.0;"/><!--SRC=[RLBVQuCm47xthxYd4LaPhOLH51-wCaOX7MERXJw5L5FgvX99BXlzxvSQjKhx97vt-NxSdK6kCGXYWnpB76mfSS4GAlRX0C7i8kbhcnCjzqoBNEcYQQ7Su7lpcum8vb5VNXPVrg0ec9r7hkb2hmKwSaXXsiBjewmkdEwMLrQSt_Y6mFoLc1-1N6o5GP1p8u1COrZB4iC0e3m0SVPOdKEQmcj6QGXu51B8IPXp0q0yK9ub3XBLcKIgjkmpUXClbThpoWSaTyEu4_0oOTAHThOwsh7Ij56IHNbmtxqM_BjpFulXJQjScCPVAzyYjvKtExf-OfkCVhBjacRFB5iqDkBhWKFgS4-vKZ-rHT5L-_cI8Vd3RmTFe10LSXUHsTbZnpy86RNGEE8eMXI3doFaoaeKElHFhZVC2s_t_kRHZ7M62rfvNbSWLxGtF0yjkcNuctAdxxYjblrD9e51LVy3]--></g></svg>