<?xml version="1.0" encoding="us-ascii" standalone="no"?><svg xmlns="http://www.w3.org/2000/svg" xmlns:xlink="http://www.w3.org/1999/xlink" contentStyleType="text/css" height="753px" preserveAspectRatio="none" style="width:426px;height:753px;background:#FFFFFF;" version="1.1" viewBox="0 0 426 753" width="426px" zoomAndPan="magnify"><defs/><g><ellipse cx="200.5" cy="20" fill="#222222" rx="10" ry="10" style="stroke:#222222;stroke-width:1.0;"/><rect fill="#F1F1F1" height="33.9688" rx="12.5" ry="12.5" style="stroke:#181818;stroke-width:0.5;" width="129" x="136" y="50"/><text fill="#000000" font-family="sans-serif" font-size="12" lengthAdjust="spacing" textLength="105" x="150" y="71.1387">l_inNull_b = false</text><rect fill="#F1F1F1" height="33.9688" rx="12.5" ry="12.5" style="stroke:#181818;stroke-width:0.5;" width="125" x="138" y="152.3711"/><text fill="#000000" font-family="sans-serif" font-size="12" lengthAdjust="spacing" textLength="101" x="152" y="173.5098">l_inNull_b = true</text><polygon fill="#F1F1F1" points="89.5,103.9688,311.5,103.9688,323.5,115.9688,311.5,127.9688,89.5,127.9688,77.5,115.9688,89.5,103.9688" style="stroke:#181818;stroke-width:0.5;"/><text fill="#000000" font-family="sans-serif" font-size="11" lengthAdjust="spacing" textLength="20" x="204.5" y="138.1792">yes</text><text fill="#000000" font-family="sans-serif" font-size="11" lengthAdjust="spacing" textLength="222" x="89.5" y="119.7769">values_pu16 == NULL or len_u32 == 0</text><polygon fill="#F1F1F1" points="200.5,206.3398,212.5,218.3398,200.5,230.3398,188.5,218.3398,200.5,206.3398" style="stroke:#181818;stroke-width:0.5;"/><rect fill="#F1F1F1" height="33.9688" rx="12.5" ry="12.5" style="stroke:#181818;stroke-width:0.5;" width="111" x="145" y="250.3398"/><text fill="#000000" font-family="sans-serif" font-size="12" lengthAdjust="spacing" textLength="91" x="155" y="271.4785">l_sum_u32 = 0</text><rect fill="#F1F1F1" height="33.9688" rx="12.5" ry="12.5" style="stroke:#181818;stroke-width:0.5;" width="197" x="102" y="352.7109"/><text fill="#000000" font-family="sans-serif" font-size="12" lengthAdjust="spacing" textLength="177" x="112" y="373.8496">for l_i_u32 in [0 .. len_u32-1]</text><rect fill="#F1F1F1" height="33.9688" rx="12.5" ry="12.5" style="stroke:#181818;stroke-width:0.5;" width="379" x="11" y="406.6797"/><text fill="#000000" font-family="sans-serif" font-size="12" lengthAdjust="spacing" textLength="359" x="21" y="427.8184">values_pu16[l_i_u32] = values_pu16[l_i_u32] * factor_u16</text><rect fill="#F1F1F1" height="33.9688" rx="12.5" ry="12.5" style="stroke:#181818;stroke-width:0.5;" width="243" x="79" y="460.6484"/><text fill="#000000" font-family="sans-serif" font-size="12" lengthAdjust="spacing" textLength="223" x="89" y="481.7871">l_sum_u32 += values_pu16[l_i_u32]</text><rect fill="#F1F1F1" height="33.9688" rx="12.5" ry="12.5" style="stroke:#181818;stroke-width:0.5;" width="61" x="170" y="514.6172"/><text fill="#000000" font-family="sans-serif" font-size="12" lengthAdjust="spacing" textLength="41" x="180" y="535.7559">endfor</text><rect fill="#F1F1F1" height="33.9688" rx="12.5" ry="12.5" style="stroke:#181818;stroke-width:0.5;" width="373" x="14" y="568.5859"/><text fill="#000000" font-family="sans-serif" font-size="12" lengthAdjust="spacing" textLength="353" x="24" y="589.7246">call MyLib_ComputeAdjustedValue_u32(l_sum_u32, NULL)</text><polygon fill="#F1F1F1" points="147,304.3086,254,304.3086,266,316.3086,254,328.3086,147,328.3086,135,316.3086,147,304.3086" style="stroke:#181818;stroke-width:0.5;"/><text fill="#000000" font-family="sans-serif" font-size="11" lengthAdjust="spacing" textLength="46" x="204.5" y="338.519">process</text><text fill="#000000" font-family="sans-serif" font-size="11" lengthAdjust="spacing" textLength="107" x="147" y="320.1167">l_inNull_b == false</text><polygon fill="#F1F1F1" points="200.5,622.5547,212.5,634.5547,200.5,646.5547,188.5,634.5547,200.5,622.5547" style="stroke:#181818;stroke-width:0.5;"/><rect fill="#F1F1F1" height="33.9688" rx="12.5" ry="12.5" style="stroke:#181818;stroke-width:0.5;" width="128" x="136.5" y="666.5547"/><text fill="#000000" font-family="sans-serif" font-size="12" lengthAdjust="spacing" textLength="108" x="146.5" y="687.6934">return l_sum_u32</text><ellipse cx="200.5" cy="731.5234" fill="none" rx="11" ry="11" style="stroke:#222222;stroke-width:1.0;"/><ellipse cx="200.5" cy="731.5234" fill="#222222" rx="6" ry="6" style="stroke:#222222;stroke-width:1.0;"/><line style="stroke:#181818;stroke-width:1.0;" x1="200.5" x2="200.5" y1="30" y2="50"/><polygon fill="#181818" points="196.5,40,200.5,50,204.5,40,200.5,44" style="stroke:#181818;stroke-width:1.0;"/><line style="stroke:#181818;stroke-width:1.0;" x1="200.5" x2="200.5" y1="127.9688" y2="152.3711"/><polygon fill="#181818" points="196.5,142.3711,200.5,152.3711,204.5,142.3711,200.5,146.3711" style="stroke:#181818;stroke-width:1.0;"/><line style="stroke:#181818;stroke-width:1.0;" x1="323.5" x2="335.5" y1="115.9688" y2="115.9688"/><polygon fill="#181818" points="331.5,159.3555,335.5,169.3555,339.5,159.3555,335.5,163.3555" style="stroke:#181818;stroke-width:1.0;"/><line style="stroke:#181818;stroke-width:1.0;" x1="335.5" x2="335.5" y1="115.9688" y2="218.3398"/><line style="stroke:#181818;stroke-width:1.0;" x1="335.5" x2="212.5" y1="218.3398" y2="218.3398"/><polygon fill="#181818" points="222.5,214.3398,212.5,218.3398,222.5,222.3398,218.5,218.3398" style="stroke:#181818;stroke-width:1.0;"/><line style="stroke:#181818;stroke-width:1.0;" x1="200.5" x2="200.5" y1="186.3398" y2="206.3398"/><polygon fill="#181818" points="196.5,196.3398,200.5,206.3398,204.5,196.3398,200.5,200.3398" style="stroke:#181818;stroke-width:1.0;"/><line style="stroke:#181818;stroke-width:1.0;" x1="200.5" x2="200.5" y1="83.9688" y2="103.9688"/><polygon fill="#181818" points="196.5,93.9688,200.5,103.9688,204.5,93.9688,200.5,97.9688" style="stroke:#181818;stroke-width:1.0;"/><line style="stroke:#181818;stroke-width:1.0;" x1="200.5" x2="200.5" y1="230.3398" y2="250.3398"/><polygon fill="#181818" points="196.5,240.3398,200.5,250.3398,204.5,240.3398,200.5,244.3398" style="stroke:#181818;stroke-width:1.0;"/><line style="stroke:#181818;stroke-width:1.0;" x1="200.5" x2="200.5" y1="386.6797" y2="406.6797"/><polygon fill="#181818" points="196.5,396.6797,200.5,406.6797,204.5,396.6797,200.5,400.6797" style="stroke:#181818;stroke-width:1.0;"/><line style="stroke:#181818;stroke-width:1.0;" x1="200.5" x2="200.5" y1="440.6484" y2="460.6484"/><polygon fill="#181818" points="196.5,450.6484,200.5,460.6484,204.5,450.6484,200.5,454.6484" style="stroke:#181818;stroke-width:1.0;"/><line style="stroke:#181818;stroke-width:1.0;" x1="200.5" x2="200.5" y1="494.6172" y2="514.6172"/><polygon fill="#181818" points="196.5,504.6172,200.5,514.6172,204.5,504.6172,200.5,508.6172" style="stroke:#181818;stroke-width:1.0;"/><line style="stroke:#181818;stroke-width:1.0;" x1="200.5" x2="200.5" y1="548.5859" y2="568.5859"/><polygon fill="#181818" points="196.5,558.5859,200.5,568.5859,204.5,558.5859,200.5,562.5859" style="stroke:#181818;stroke-width:1.0;"/><line style="stroke:#181818;stroke-width:1.0;" x1="200.5" x2="200.5" y1="328.3086" y2="352.7109"/><polygon fill="#181818" points="196.5,342.7109,200.5,352.7109,204.5,342.7109,200.5,346.7109" style="stroke:#181818;stroke-width:1.0;"/><line style="stroke:#181818;stroke-width:1.0;" x1="266" x2="400" y1="316.3086" y2="316.3086"/><polygon fill="#181818" points="396,467.6328,400,477.6328,404,467.6328,400,471.6328" style="stroke:#181818;stroke-width:1.0;"/><line style="stroke:#181818;stroke-width:1.0;" x1="400" x2="400" y1="316.3086" y2="634.5547"/><line style="stroke:#181818;stroke-width:1.0;" x1="400" x2="212.5" y1="634.5547" y2="634.5547"/><polygon fill="#181818" points="222.5,630.5547,212.5,634.5547,222.5,638.5547,218.5,634.5547" style="stroke:#181818;stroke-width:1.0;"/><line style="stroke:#181818;stroke-width:1.0;" x1="200.5" x2="200.5" y1="602.5547" y2="622.5547"/><polygon fill="#181818" points="196.5,612.5547,200.5,622.5547,204.5,612.5547,200.5,616.5547" style="stroke:#181818;stroke-width:1.0;"/><line style="stroke:#181818;stroke-width:1.0;" x1="200.5" x2="200.5" y1="284.3086" y2="304.3086"/><polygon fill="#181818" points="196.5,294.3086,200.5,304.3086,204.5,294.3086,200.5,298.3086" style="stroke:#181818;stroke-width:1.0;"/><line style="stroke:#181818;stroke-width:1.0;" x1="200.5" x2="200.5" y1="646.5547" y2="666.5547"/><polygon fill="#181818" points="196.5,656.5547,200.5,666.5547,204.5,656.5547,200.5,660.5547" style="stroke:#181818;stroke-width:1.0;"/><line style="stroke:#181818;stroke-width:1.0;" x1="200.5" x2="200.5" y1="700.5234" y2="720.5234"/><polygon fill="#181818" points="196.5,710.5234,200.5,720.5234,204.5,710.5234,200.5,714.5234" style="stroke:#181818;stroke-width:1.0;"/><!--SRC=[RP0nRy8m48Lt_ueR4sXHA5A7e0mLQs1h5uIia5nKLuSTsUTA_7lE459KiLddzxxtxW8tdbK9f8tTHI9zX0hwXWAkbJ8zPByDHGnwYCjtg2hOVTOrE0-4LiVLMneLEV0tMiZE6785y0_6FWeBRMTwLP8EyNGpGZ4cFAh7x3jnyAx5SAFsALMRgzbOs1UmMDnhl2uFQz68wg7kVbGV9ElfU2PXBJklPJhQ__hDdvkIhfHbf8tKbtVR4C7sN9kZthZJ41a_kfyO6BklP4-cRAA-NE-NJ-VmoD5RcFu56TWD5m00]--></g></svg>