<?xml version="1.0" encoding="UTF-8" standalone="no"?>
<!DOCTYPE svg PUBLIC "-//W3C//DTD SVG 1.1//EN"
 "http://www.w3.org/Graphics/SVG/1.1/DTD/svg11.dtd">
<!-- Generated by graphviz version 2.43.0 (0)
 -->
<!-- Title: MyLib_ProcessRecord Pages: 1 -->
<svg width="320pt" height="64pt"
 viewBox="0.00 0.00 320.00 64.00" xmlns="http://www.w3.org/2000/svg" xmlns:xlink="http://www.w3.org/1999/xlink">
<g id="graph0" class="graph" transform="scale(1 1) rotate(0) translate(4 60)">
<title>MyLib_ProcessRecord</title>
<!-- Node1 -->
<g id="Node000001" class="node">
<title>Node1</title>
<g id="a_Node000001"><a xlink:title="Process one record with a bounded accumulation and update module globals.">
<polygon fill="#999999" stroke="#666666" points="312,-37 190,-37 190,-18 312,-18 312,-37"/>
<text text-anchor="middle" x="251" y="-25" font-family="Helvetica,sans-Serif" font-size="10.00">MyLib_ProcessRecord</text>
</a>
</g>
</g>
<!-- Node2 -->
<g id="Node000002" class="node">
<title>Node2</title>
<g id="a_Node000002"><a xlink:href="MyLib_8c.html#add13a4d8d439c55a7a840a180c935804" target="_top" xlink:title="Run an orchestration sequence and return a combined result.">
<polygon fill="white" stroke="#666666" points="142.5,-56 11.5,-56 11.5,-37 142.5,-37 142.5,-56"/>
<text text-anchor="middle" x="77" y="-44" font-family="Helvetica,sans-Serif" font-size="10.00">MyLib_Orchestrate_u32</text>
</a>
</g>
</g>
<!-- Node1&#45;&gt;Node2 -->
<g id="edge1_Node000001_Node000002" class="edge">
<title>Node1&#45;&gt;Node2</title>
<g id="a_edge1_Node000001_Node000002"><a xlink:title=" ">
<path fill="none" stroke="#63b8ff" d="M179.65,-35.27C167.36,-36.63 154.63,-38.03 142.51,-39.37"/>
<polygon fill="#63b8ff" stroke="#63b8ff" points="180.29,-38.72 189.84,-34.15 179.52,-31.76 180.29,-38.72"/>
</a>
</g>
</g>
<!-- Node3 -->
<g id="Node000003" class="node">
<title>Node3</title>
<g id="a_Node000003"><a xlink:href="MyLib_8c.html#a8740268c394e6c82a7a0128bb13067fa" target="_top" xlink:title="Execute one step of an internal state machine operating on a record and updating the module counter.">
<polygon fill="white" stroke="#666666" points="154,-19 0,-19 0,0 154,0 154,-19"/>
<text text-anchor="middle" x="77" y="-7" font-family="Helvetica,sans-Serif" font-size="10.00">MyLib_RunStateMachine_u8</text>
</a>
</g>
</g>
<!-- Node1&#45;&gt;Node3 -->
<g id="edge2_Node000001_Node000003" class="edge">
<title>Node1&#45;&gt;Node3</title>
<g id="a_edge2_Node000001_Node000003"><a xlink:title=" ">
<path fill="none" stroke="#63b8ff" d="M179.7,-20.14C171.28,-19.26 162.65,-18.36 154.15,-17.47"/>
<polygon fill="#63b8ff" stroke="#63b8ff" points="179.53,-23.64 189.84,-21.2 180.26,-16.68 179.53,-23.64"/>
</a>
</g>
</g>
</g>
</svg>
