<?xml version="1.0" encoding="UTF-8" standalone="no"?>
<!DOCTYPE svg PUBLIC "-//W3C//DTD SVG 1.1//EN"
 "http://www.w3.org/Graphics/SVG/1.1/DTD/svg11.dtd">
<!-- Generated by graphviz version 2.43.0 (0)
 -->
<!-- Title: MyLib_ComputeAdjustedValue_u32 Pages: 1 -->
<!--zoomable 177 -->

<svg id="main" version="1.1" xmlns="http://www.w3.org/2000/svg" xmlns:xlink="http://www.w3.org/1999/xlink" xml:space="preserve" onload="init(evt)">
<style type="text/css"><![CDATA[
.node, .edge {opacity: 0.7;}
.node.selected, .edge.selected {opacity: 1;}
.edge:hover path { stroke: red; }
.edge:hover polygon { stroke: red; fill: red; }
]]></style>

<defs>
  <circle id="rim" cx="0" cy="0" r="7"/>
  <circle id="rim2" cx="0" cy="0" r="3.5"/>
  <g id="zoomPlus">
    <use xlink:href="#rim" fill="#404040"><set attributeName="fill" to="#808080" begin="zoomplus.mouseover" end="zoomplus.mouseout"/></use>
    <path d="M-4,0h8M0,-4v8" fill="none" stroke="white" stroke-width="1.5" pointer-events="none"/>
  </g>
  <g id="zoomMin">
    <use xlink:href="#rim" fill="#404040"><set attributeName="fill" to="#808080" begin="zoomminus.mouseover" end="zoomminus.mouseout"/></use>
    <path d="M-4,0h8" fill="none" stroke="white" stroke-width="1.5" pointer-events="none"/>
  </g>
  <g id="arrowUp" transform="translate(30 24)">
    <use xlink:href="#rim"/>
    <path pointer-events="none" fill="none" stroke="white" stroke-width="1.5" d="M0,-3.0v7 M-2.5,-0.5L0,-3.0L2.5,-0.5"/>
  </g>
  <g id="arrowRight" transform="rotate(90) translate(36 -43)">
    <use xlink:href="#rim"/>
    <path pointer-events="none" fill="none" stroke="white" stroke-width="1.5" d="M0,-3.0v7 M-2.5,-0.5L0,-3.0L2.5,-0.5"/>
  </g>
  <g id="arrowDown" transform="rotate(180) translate(-30 -48)">
    <use xlink:href="#rim"/>
    <path pointer-events="none" fill="none" stroke="white" stroke-width="1.5" d="M0,-3.0v7 M-2.5,-0.5L0,-3.0L2.5,-0.5"/>
  </g>
  <g id="arrowLeft" transform="rotate(270) translate(-36 17)">
    <use xlink:href="#rim"/>
    <path pointer-events="none" fill="none" stroke="white" stroke-width="1.5" d="M0,-3.0v7 M-2.5,-0.5L0,-3.0L2.5,-0.5"/>
  </g>
  <g id="resetDef">
    <use xlink:href="#rim2" fill="#404040"><set attributeName="fill" to="#808080" begin="reset.mouseover" end="reset.mouseout"/></use>
  </g>
</defs>
<script type="application/ecmascript">
var viewWidth = 562;
var viewHeight = 177;
var sectionId = 'dynsection-5';
</script>
<script type="application/ecmascript" xlink:href="svg.min.js"/>
<svg id="graph" class="graph">
<g id="viewport">
<title>MyLib_ComputeAdjustedValue_u32</title>
<!-- Node1 -->
<g id="Node000001" class="node">
<title>Node1</title>
<g id="a_Node000001"><a xlink:title="Compute an adjusted value from a base value and an optional delta.">
<polygon fill="#999999" stroke="#666666" points="554,-95 366,-95 366,-76 554,-76 554,-95"/>
<text text-anchor="middle" x="460" y="-83" font-family="Helvetica,sans-Serif" font-size="10.00">MyLib_ComputeAdjustedValue_u32</text>
</a>
</g>
</g>
<!-- Node2 -->
<g id="Node000002" class="node">
<title>Node2</title>
<g id="a_Node000002"><a xlink:href="MyLib_8c.html#a9a012e582e10fbe8211f3dec731d71f5" target="_top" xlink:title="Scale an array in&#45;place and return the sum of scaled elements.">
<polygon fill="white" stroke="#666666" points="312.5,-169 207.5,-169 207.5,-150 312.5,-150 312.5,-169"/>
<text text-anchor="middle" x="260" y="-157" font-family="Helvetica,sans-Serif" font-size="10.00">AnalyzeArray_u32</text>
</a>
</g>
</g>
<!-- Node1&#45;&gt;Node2 -->
<g id="edge1_Node000001_Node000002" class="edge">
<title>Node1&#45;&gt;Node2</title>
<g id="a_edge1_Node000001_Node000002"><a xlink:title=" ">
<path fill="none" stroke="#63b8ff" d="M430.06,-99.6C404.24,-111.8 365.2,-129.35 330,-141.5 320.99,-144.61 311.16,-147.48 301.81,-149.97"/>
<polygon fill="#63b8ff" stroke="#63b8ff" points="431.75,-102.67 439.27,-95.21 428.74,-96.35 431.75,-102.67"/>
</a>
</g>
</g>
<!-- Node3 -->
<g id="Node000003" class="node">
<title>Node3</title>
<g id="a_Node000003"><a xlink:href="MyLib_8c.html#a94d6f4e2dbaa27413d7096304c6b82cb" target="_top" xlink:title="Scale an array in&#45;place and return the sum of scaled elements.">
<polygon fill="white" stroke="#666666" points="330,-132 190,-132 190,-113 330,-113 330,-132"/>
<text text-anchor="middle" x="260" y="-120" font-family="Helvetica,sans-Serif" font-size="10.00">MyLib_AnalyzeArray_u32</text>
</a>
</g>
</g>
<!-- Node1&#45;&gt;Node3 -->
<g id="edge2_Node000001_Node000003" class="edge">
<title>Node1&#45;&gt;Node3</title>
<g id="a_edge2_Node000001_Node000003"><a xlink:title=" ">
<path fill="none" stroke="#63b8ff" d="M398.1,-96.88C370.57,-102.02 338.41,-108.03 312.16,-112.94"/>
<polygon fill="#63b8ff" stroke="#63b8ff" points="398.82,-100.31 408.01,-95.03 397.54,-93.42 398.82,-100.31"/>
</a>
</g>
</g>
<!-- Node4 -->
<g id="Node000004" class="node">
<title>Node4</title>
<g id="a_Node000004"><a xlink:href="MyLib_8c.html#acc6858dfaa1f81a7b2e08e66b7e51f0c" target="_top" xlink:title="Process one record with a bounded accumulation and update module globals.">
<polygon fill="white" stroke="#666666" points="321,-95 199,-95 199,-76 321,-76 321,-95"/>
<text text-anchor="middle" x="260" y="-83" font-family="Helvetica,sans-Serif" font-size="10.00">MyLib_ProcessRecord</text>
</a>
</g>
</g>
<!-- Node1&#45;&gt;Node4 -->
<g id="edge3_Node000001_Node000004" class="edge">
<title>Node1&#45;&gt;Node4</title>
<g id="a_edge3_Node000001_Node000004"><a xlink:title=" ">
<path fill="none" stroke="#63b8ff" d="M355.49,-85.5C343.77,-85.5 332.13,-85.5 321.24,-85.5"/>
<polygon fill="#63b8ff" stroke="#63b8ff" points="355.8,-89 365.8,-85.5 355.8,-82 355.8,-89"/>
</a>
</g>
</g>
<!-- Node6 -->
<g id="Node000006" class="node">
<title>Node6</title>
<g id="a_Node000006"><a xlink:href="MyLib_8c.html#a8740268c394e6c82a7a0128bb13067fa" target="_top" xlink:title="Execute one step of an internal state machine operating on a record and updating the module counter.">
<polygon fill="white" stroke="#666666" points="154,-58 0,-58 0,-39 154,-39 154,-58"/>
<text text-anchor="middle" x="77" y="-46" font-family="Helvetica,sans-Serif" font-size="10.00">MyLib_RunStateMachine_u8</text>
</a>
</g>
</g>
<!-- Node1&#45;&gt;Node6 -->
<g id="edge6_Node000001_Node000006" class="edge">
<title>Node1&#45;&gt;Node6</title>
<g id="a_edge6_Node000001_Node000006"><a xlink:title=" ">
<path fill="none" stroke="#63b8ff" d="M390.64,-74.46C371.09,-71.56 349.74,-68.66 330,-66.5 271.14,-60.07 204.28,-55.42 154.22,-52.45"/>
<polygon fill="#63b8ff" stroke="#63b8ff" points="390.27,-77.94 400.68,-75.96 391.31,-71.02 390.27,-77.94"/>
</a>
</g>
</g>
<!-- Node7 -->
<g id="Node000007" class="node">
<title>Node7</title>
<g id="a_Node000007"><a xlink:href="MyLib_8c.html#a09e209253fe184eddc89f13fbf751b50" target="_top" xlink:title="Process one record with a bounded accumulation and update module globals.">
<polygon fill="white" stroke="#666666" points="304,-19 216,-19 216,0 304,0 304,-19"/>
<text text-anchor="middle" x="260" y="-7" font-family="Helvetica,sans-Serif" font-size="10.00">ProcessRecord</text>
</a>
</g>
</g>
<!-- Node1&#45;&gt;Node7 -->
<g id="edge7_Node000001_Node000007" class="edge">
<title>Node1&#45;&gt;Node7</title>
<g id="a_edge7_Node000001_Node000007"><a xlink:title=" ">
<path fill="none" stroke="#63b8ff" d="M426.93,-72.07C400.94,-61.31 363.28,-45.99 330,-33.5 316.7,-28.51 301.83,-23.29 289.31,-19"/>
<polygon fill="#63b8ff" stroke="#63b8ff" points="425.72,-75.36 436.29,-75.96 428.4,-68.89 425.72,-75.36"/>
</a>
</g>
</g>
<!-- Node5 -->
<g id="Node000005" class="node">
<title>Node5</title>
<g id="a_Node000005"><a xlink:href="MyLib_8c.html#add13a4d8d439c55a7a840a180c935804" target="_top" xlink:title="Run an orchestration sequence and return a combined result.">
<polygon fill="white" stroke="#666666" points="142.5,-95 11.5,-95 11.5,-76 142.5,-76 142.5,-95"/>
<text text-anchor="middle" x="77" y="-83" font-family="Helvetica,sans-Serif" font-size="10.00">MyLib_Orchestrate_u32</text>
</a>
</g>
</g>
<!-- Node4&#45;&gt;Node5 -->
<g id="edge4_Node000004_Node000005" class="edge">
<title>Node4&#45;&gt;Node5</title>
<g id="a_edge4_Node000004_Node000005"><a xlink:title=" ">
<path fill="none" stroke="#63b8ff" d="M188.62,-85.5C173.44,-85.5 157.47,-85.5 142.52,-85.5"/>
<polygon fill="#63b8ff" stroke="#63b8ff" points="188.98,-89 198.98,-85.5 188.98,-82 188.98,-89"/>
</a>
</g>
</g>
<!-- Node4&#45;&gt;Node6 -->
<g id="edge5_Node000004_Node000006" class="edge">
<title>Node4&#45;&gt;Node6</title>
<g id="a_edge5_Node000004_Node000006"><a xlink:title=" ">
<path fill="none" stroke="#63b8ff" d="M202.33,-73.92C177.39,-68.82 148.45,-62.9 124.77,-58.06"/>
<polygon fill="#63b8ff" stroke="#63b8ff" points="201.89,-77.4 212.39,-75.97 203.29,-70.54 201.89,-77.4"/>
</a>
</g>
</g>
</g>
</svg>

<g id="navigator" transform="translate(0 0)" fill="#404254">
  <rect fill="#f2f5e9" fill-opacity="0.5" stroke="#606060" stroke-width=".5" x="0" y="0" width="60" height="60"/>
  <use id="zoomplus" xlink:href="#zoomPlus" x="17" y="9" onmousedown="handleZoom(evt,'in')"/>
  <use id="zoomminus" xlink:href="#zoomMin" x="42" y="9" onmousedown="handleZoom(evt,'out')"/>
  <use id="reset" xlink:href="#resetDef" x="30" y="36" onmousedown="handleReset()"/>
   <use id="arrowup" xlink:href="#arrowUp" x="0" y="0" onmousedown="handlePan(0,-1)"/>
  <use id="arrowright" xlink:href="#arrowRight" x="0" y="0" onmousedown="handlePan(1,0)"/>
  <use id="arrowdown" xlink:href="#arrowDown" x="0" y="0" onmousedown="handlePan(0,1)"/>
  <use id="arrowleft" xlink:href="#arrowLeft" x="0" y="0" onmousedown="handlePan(-1,0)"/>
</g>
<svg viewBox="0 0 15 15" width="100%" height="30px" preserveAspectRatio="xMaxYMin meet">
 <g id="arrow_out" transform="scale(0.3 0.3)">
  <a xlink:href="MyLib_8h_ab76873d371c0f801495750c290ac869d_icgraph_org.svg" target="_base">
   <rect id="button" ry="5" rx="5" y="6" x="6" height="38" width="38"
        fill="#f2f5e9" fill-opacity="0.5" stroke="#606060" stroke-width="1.0"/>
   <path id="arrow"
     d="M 11.500037,31.436501 C 11.940474,20.09759 22.043105,11.32322 32.158766,21.979434 L 37.068811,17.246167 C 37.068811,17.246167 37.088388,32 37.088388,32 L 22.160133,31.978069 C 22.160133,31.978069 26.997745,27.140456 26.997745,27.140456 C 18.528582,18.264221 13.291696,25.230495 11.500037,31.436501 z"
     style="fill:#404040;"/>
  </a>
 </g>
</svg>

<style type='text/css'>
<![CDATA[
[data-mouse-over-selected='false'] { opacity: 0.7; }
[data-mouse-over-selected='true']  { opacity: 1.0; }
]]>
</style>
<script type="application/ecmascript"><![CDATA[
document.addEventListener('DOMContentLoaded', (event) => {
  highlightEdges();
  highlightAdjacentNodes();
});
]]></script>
</svg>
