<?xml version="1.0" encoding="UTF-8" standalone="no"?>
<!DOCTYPE svg PUBLIC "-//W3C//DTD SVG 1.1//EN"
 "http://www.w3.org/Graphics/SVG/1.1/DTD/svg11.dtd">
<!-- Generated by graphviz version 2.43.0 (0)
 -->
<!-- Title: MyLib_RunStateMachine_u8 Pages: 1 -->
<svg width="720pt" height="120pt"
 viewBox="0.00 0.00 720.00 120.00" xmlns="http://www.w3.org/2000/svg" xmlns:xlink="http://www.w3.org/1999/xlink">
<g id="graph0" class="graph" transform="scale(1 1) rotate(0) translate(4 116)">
<title>MyLib_RunStateMachine_u8</title>
<!-- Node1 -->
<g id="Node000001" class="node">
<title>Node1</title>
<g id="a_Node000001"><a xlink:title="Execute one step of an internal state machine operating on a record and updating the module counter.">
<polygon fill="#999999" stroke="#666666" points="154,-74 0,-74 0,-55 154,-55 154,-74"/>
<text text-anchor="middle" x="77" y="-62" font-family="Helvetica,sans-Serif" font-size="10.00">MyLib_RunStateMachine_u8</text>
</a>
</g>
</g>
<!-- Node2 -->
<g id="Node000002" class="node">
<title>Node2</title>
<g id="a_Node000002"><a xlink:href="MyLib_8c.html#ab76873d371c0f801495750c290ac869d" target="_top" xlink:title="Compute an adjusted value from a base value and an optional delta.">
<polygon fill="white" stroke="#666666" points="566,-112 378,-112 378,-93 566,-93 566,-112"/>
<text text-anchor="middle" x="472" y="-100" font-family="Helvetica,sans-Serif" font-size="10.00">MyLib_ComputeAdjustedValue_u32</text>
</a>
</g>
</g>
<!-- Node1&#45;&gt;Node2 -->
<g id="edge1_Node000001_Node000002" class="edge">
<title>Node1&#45;&gt;Node2</title>
<g id="a_edge1_Node000001_Node000002"><a xlink:title=" ">
<path fill="none" stroke="#63b8ff" d="M99.35,-74.09C121.49,-83.48 157.38,-97.12 190,-102.5 248.33,-112.13 314.41,-112.64 367.83,-110.51"/>
<polygon fill="#63b8ff" stroke="#63b8ff" points="368.15,-114 377.99,-110.07 367.85,-107 368.15,-114"/>
</a>
</g>
</g>
<!-- Node4 -->
<g id="Node000004" class="node">
<title>Node4</title>
<g id="a_Node000004"><a xlink:href="MyLib_8c.html#acc6858dfaa1f81a7b2e08e66b7e51f0c" target="_top" xlink:title="Process one record with a bounded accumulation and update module globals.">
<polygon fill="white" stroke="#666666" points="327,-93 205,-93 205,-74 327,-74 327,-93"/>
<text text-anchor="middle" x="266" y="-81" font-family="Helvetica,sans-Serif" font-size="10.00">MyLib_ProcessRecord</text>
</a>
</g>
</g>
<!-- Node1&#45;&gt;Node4 -->
<g id="edge3_Node000001_Node000004" class="edge">
<title>Node1&#45;&gt;Node4</title>
<g id="a_edge3_Node000001_Node000004"><a xlink:title=" ">
<path fill="none" stroke="#63b8ff" d="M154.06,-72.23C167.52,-73.6 181.47,-75.01 194.76,-76.36"/>
<polygon fill="#63b8ff" stroke="#63b8ff" points="194.47,-79.85 204.77,-77.38 195.18,-72.89 194.47,-79.85"/>
</a>
</g>
</g>
<!-- Node5 -->
<g id="Node000005" class="node">
<title>Node5</title>
<g id="a_Node000005"><a xlink:href="MyLib_8c.html#adb628d68b37d8eb553cb07ac01ef4759" target="_top" xlink:title="Update the module global counter with optional saturation handling.">
<polygon fill="white" stroke="#666666" points="337,-56 195,-56 195,-37 337,-37 337,-56"/>
<text text-anchor="middle" x="266" y="-44" font-family="Helvetica,sans-Serif" font-size="10.00">MyLib_UpdateCounter_u8</text>
</a>
</g>
</g>
<!-- Node1&#45;&gt;Node5 -->
<g id="edge5_Node000001_Node000005" class="edge">
<title>Node1&#45;&gt;Node5</title>
<g id="a_edge5_Node000001_Node000005"><a xlink:title=" ">
<path fill="none" stroke="#63b8ff" d="M154.06,-57.18C164.15,-56.21 174.51,-55.21 184.67,-54.23"/>
<polygon fill="#63b8ff" stroke="#63b8ff" points="185.12,-57.71 194.74,-53.26 184.45,-50.74 185.12,-57.71"/>
</a>
</g>
</g>
<!-- Node6 -->
<g id="Node000006" class="node">
<title>Node6</title>
<g id="a_Node000006"><a xlink:href="MyLib_8c.html#a62465ad05534dca56af08c456d6b9af8" target="_top" xlink:title="Copy a record into a destination and update module global state.">
<polygon fill="white" stroke="#666666" points="342,-19 190,-19 190,0 342,0 342,-19"/>
<text text-anchor="middle" x="266" y="-7" font-family="Helvetica,sans-Serif" font-size="10.00">MyLib_UpdateGlobalRecord</text>
</a>
</g>
</g>
<!-- Node1&#45;&gt;Node6 -->
<g id="edge6_Node000001_Node000006" class="edge">
<title>Node1&#45;&gt;Node6</title>
<g id="a_edge6_Node000001_Node000006"><a xlink:title=" ">
<path fill="none" stroke="#63b8ff" d="M105.93,-54.98C128.5,-47.42 161.14,-36.78 190,-28.5 198.17,-26.16 206.88,-23.81 215.36,-21.61"/>
<polygon fill="#63b8ff" stroke="#63b8ff" points="216.35,-24.97 225.17,-19.09 214.62,-18.18 216.35,-24.97"/>
</a>
</g>
</g>
<!-- Node3 -->
<g id="Node000003" class="node">
<title>Node3</title>
<g id="a_Node000003"><a xlink:href="MyLib_8c.html#ab5e4dfbd8dae29eeb60944034baa1ee6" target="_top" xlink:title=" ">
<polygon fill="white" stroke="#666666" points="712,-112 602,-112 602,-93 712,-93 712,-112"/>
<text text-anchor="middle" x="657" y="-100" font-family="Helvetica,sans-Serif" font-size="10.00">InternalHelper_u32</text>
</a>
</g>
</g>
<!-- Node2&#45;&gt;Node3 -->
<g id="edge2_Node000002_Node000003" class="edge">
<title>Node2&#45;&gt;Node3</title>
<g id="a_edge2_Node000002_Node000003"><a xlink:title=" ">
<path fill="none" stroke="#63b8ff" d="M566.11,-102.5C574.68,-102.5 583.22,-102.5 591.45,-102.5"/>
<polygon fill="#63b8ff" stroke="#63b8ff" points="591.68,-106 601.68,-102.5 591.68,-99 591.68,-106"/>
</a>
</g>
</g>
<!-- Node4&#45;&gt;Node2 -->
<g id="edge4_Node000004_Node000002" class="edge">
<title>Node4&#45;&gt;Node2</title>
<g id="a_edge4_Node000004_Node000002"><a xlink:title=" ">
<path fill="none" stroke="#63b8ff" d="M327.1,-89.1C339.87,-90.29 353.7,-91.57 367.56,-92.87"/>
<polygon fill="#63b8ff" stroke="#63b8ff" points="367.37,-96.36 377.65,-93.81 368.02,-89.39 367.37,-96.36"/>
</a>
</g>
</g>
</g>
</svg>
